<?xml version="1.0" encoding="UTF-8"?>
<svg width="171px" height="54px" viewBox="0 0 171 54" version="1.1" xmlns="http://www.w3.org/2000/svg" xmlns:xlink="http://www.w3.org/1999/xlink">
    <!-- Generator: Sketch 63.1 (92452) - https://sketch.com -->
    <title>Header</title>
    <desc>Created with Sketch.</desc>
    <defs>
        <linearGradient x1="88.6541365%" y1="12.9357369%" x2="18.5703411%" y2="86.1793067%" id="linearGradient-1">
            <stop stop-color="#AB1355" offset="0%"></stop>
            <stop stop-color="#711322" offset="100%"></stop>
        </linearGradient>
        <path d="M3.15854237,0.195864407 C5.51989831,1.40308475 5.97477966,4.9240678 3.85138983,6.6520678 L3.85138983,6.6520678 C3.11369492,7.25155932 2.16274576,7.55816949 1.21820339,7.51240678 L1.21820339,7.51240678 C1.07633898,7.506 0.937220339,7.4840339 0.799932203,7.45108475 L0.799932203,7.45108475 L0.796271186,7.46755932 C0.796271186,7.46755932 0.797186441,7.46755932 0.797186441,7.46847458 L0.797186441,7.46847458 L0.798101695,7.46847458 C0.799016949,7.46847458 0.800847458,7.46847458 0.801762712,7.46938983 L0.801762712,7.46938983 C5.81186441,9.33833898 9.69162712,13.2583729 11.6090847,18.0671186 L11.6090847,18.0671186 L11.6502712,18.1714576 C11.6658305,18.2172203 11.6832203,18.2602373 11.7024407,18.3050847 L11.7024407,18.3050847 C12.2223051,19.5809492 13.4203729,20.5428814 14.9232203,20.6737627 L14.9232203,20.6737627 C16.8507458,20.8421695 18.6254237,19.5040678 19.000678,17.607661 L19.000678,17.607661 C19.1260678,16.9733898 19.0894576,16.3473559 18.9183051,15.771661 L18.9183051,15.771661 L18.9100678,15.7442034 C18.8661356,15.5822034 18.8130508,15.4238644 18.7517288,15.2682712 L18.7517288,15.2682712 C17.9636949,13.2867458 16.9285424,11.3894237 15.6545085,9.612 L15.6545085,9.612 C12.4520339,5.14738983 8.04142373,1.8680339 2.95535593,0.104338983 L2.95535593,0.104338983 C3.02491525,0.13179661 3.09172881,0.162915254 3.15854237,0.195864407" id="path-2"></path>
        <path d="M26.2449153,0.461288136 C20.7964068,0.463118644 15.498,2.15816949 10.9812203,5.39633898 L10.9812203,5.39633898 C5.27186441,9.49118644 1.49827119,15.5648136 0.356033898,22.4978644 L0.356033898,22.4978644 L0.383491525,22.5024407 C0.915254237,20.6664407 2.74759322,19.4756949 4.68152542,19.7932881 L4.68152542,19.7932881 C6.61454237,20.1127119 7.9700339,21.8278983 7.88308475,23.7380339 L7.88308475,23.7380339 L7.91054237,23.7416949 C9.58179661,13.5951864 19.1965424,6.70057627 29.3430508,8.37183051 L29.3430508,8.37183051 C30.448678,8.5539661 31.5149492,8.82945763 32.5363729,9.19189831 L32.5363729,9.19189831 C32.6333898,9.22759322 32.7322373,9.25779661 32.8338305,9.28159322 L32.8338305,9.28159322 C32.9711186,9.31454237 33.1102373,9.33650847 33.2521017,9.34291525 L33.2521017,9.34291525 C34.1966441,9.38867797 35.1475932,9.0820678 35.8852881,8.48257627 L35.8852881,8.48257627 C38.008678,6.75457627 37.5537966,3.23359322 35.1924407,2.02637288 L35.1924407,2.02637288 C35.1256271,1.99342373 35.0588136,1.96230508 34.9892542,1.93484746 L34.9892542,1.93484746 C34.8464746,1.87352542 34.6972881,1.82318644 34.5471864,1.77925424 L34.5471864,1.77925424 L34.4492542,1.75271186 C33.1990169,1.34816949 31.9075932,1.03515254 30.5868814,0.817322034 L30.5868814,0.817322034 C29.1444407,0.580271186 27.6992542,0.46220339 26.2659661,0.461288136 L26.2659661,0.461288136 L26.2449153,0.461288136 Z" id="path-4"></path>
        <linearGradient x1="15.4934995%" y1="59.1334997%" x2="93.6015896%" y2="29.2457203%" id="linearGradient-6">
            <stop stop-color="#0064A4" offset="0%"></stop>
            <stop stop-color="#41ABAE" offset="100%"></stop>
        </linearGradient>
        <path d="M0.383491525,3.28210169 C0.342305085,3.42762712 0.306610169,3.57589831 0.281898305,3.72874576 L0.281898305,3.72874576 L0.23979661,4.05823729 C-0.660813559,10.7304407 0.993966102,17.3870847 4.9359661,22.8831864 L4.9359661,22.8831864 C9.03081356,28.5934576 15.1035254,32.3661356 22.0365763,33.5083729 L22.0365763,33.5083729 C22.5234915,33.5889153 23.0104068,33.6548136 23.497322,33.7078983 L23.497322,33.7078983 L23.5055593,33.6337627 C22.2324407,33.2301356 21.225661,32.1675254 20.9172203,30.8495593 L20.9172203,30.8495593 C20.566678,29.3540339 21.1698305,27.752339 22.417322,26.8581356 L22.417322,26.8581356 C22.9701356,26.4609153 23.6254576,26.2183729 24.3009153,26.1552203 L24.3009153,26.1552203 L24.307322,26.0938983 C23.9659322,26.0572881 23.6245424,26.0106102 23.281322,25.9538644 L23.281322,25.9538644 C13.3407458,24.3164746 6.52027119,15.0550169 7.81901695,5.13732203 L7.81901695,5.13732203 C7.82176271,5.12450847 7.82359322,5.10986441 7.82542373,5.09613559 L7.82542373,5.09613559 L7.83640678,4.97257627 C7.83915254,4.95152542 7.84372881,4.93047458 7.84647458,4.90759322 L7.84647458,4.90759322 C7.86569492,4.77671186 7.87850847,4.64674576 7.88308475,4.51769492 L7.88308475,4.51769492 C7.9700339,2.60755932 6.61454237,0.892372881 4.68152542,0.572949153 L4.68152542,0.572949153 C4.47101695,0.539084746 4.26142373,0.521694915 4.05549153,0.521694915 L4.05549153,0.521694915 C2.36410169,0.521694915 0.85759322,1.64562712 0.383491525,3.28210169" id="path-7"></path>
        <linearGradient x1="32.1727855%" y1="23.9467274%" x2="65.8519711%" y2="93.8920671%" id="linearGradient-9">
            <stop stop-color="#233572" offset="0%"></stop>
            <stop stop-color="#239FD2" offset="100%"></stop>
        </linearGradient>
        <path d="M23.7993559,2.67620339 C21.1524407,10.3286441 13.7608475,15.4613898 5.61783051,15.2115254 L5.61783051,15.2115254 C5.52355932,15.2087797 5.42928814,15.2051186 5.33501695,15.2005424 L5.33501695,15.2005424 C5.31122034,15.1996271 5.28742373,15.1987119 5.26271186,15.1977966 L5.26271186,15.1977966 C5.21786441,15.1950508 5.1739322,15.1923051 5.13,15.1904746 L5.13,15.1904746 C4.97623729,15.1822373 4.82338983,15.1712542 4.67054237,15.1584407 L4.67054237,15.1584407 L4.66322034,15.1584407 C4.49847458,15.1511186 4.33098305,15.1566102 4.16532203,15.1721695 L4.16532203,15.1721695 C3.48986441,15.235322 2.83454237,15.4778644 2.28172881,15.8750847 L2.28172881,15.8750847 C1.03423729,16.7692881 0.431084746,18.3709831 0.781627119,19.8665085 L0.781627119,19.8665085 C1.0900678,21.1844746 2.09684746,22.2470847 3.3699661,22.6507119 L3.3699661,22.6507119 C3.54020339,22.7047119 3.71501695,22.7477288 3.89440678,22.7779322 L3.89440678,22.7779322 L3.90722034,22.7788475 C3.94383051,22.7825085 3.97952542,22.7852542 4.01613559,22.788 L4.01613559,22.788 C4.10216949,22.795322 4.18820339,22.8026441 4.27515254,22.8090508 L4.27515254,22.8090508 C4.92040678,22.8566441 5.56566102,22.8804407 6.20816949,22.8813559 L6.20816949,22.8813559 L6.25210169,22.8813559 C11.6978644,22.8767797 16.9935254,21.1826441 21.5066441,17.9463051 L21.5066441,17.9463051 C25.9822373,14.7365085 29.2689153,10.3094237 31.0307797,5.20688136 L31.0307797,5.20688136 C31.8050847,2.9599322 30.3791186,0.555559322 28.033322,0.169322034 L28.033322,0.169322034 C27.8237288,0.135457627 27.6141356,0.118067797 27.4072881,0.118067797 L27.4072881,0.118067797 C25.8055932,0.118067797 24.3366102,1.12118644 23.7993559,2.67620339" id="path-10"></path>
        <linearGradient x1="5.11012038%" y1="44.428815%" x2="94.8944283%" y2="55.4441425%" id="linearGradient-12">
            <stop stop-color="#201536" offset="0%"></stop>
            <stop stop-color="#004288" offset="100%"></stop>
        </linearGradient>
    </defs>
    <g id="Page-1" stroke="none" stroke-width="1" fill="none" fill-rule="evenodd">
        <g id="Marketing-Digital" transform="translate(-150.000000, -14.000000)">
            <g id="Header" transform="translate(150.000000, 14.000000)">
                <g id="Código">
                    <g id="Group-59" transform="translate(57.661017, 16.928542)">
                        <path d="M18.6921458,0.571118644 C19.1342136,0.571118644 19.5149593,0.730372881 19.8343831,1.04888136 C20.1528915,1.36830508 20.313061,1.74905085 20.313061,2.1920339 C20.313061,2.63501695 20.1528915,3.01576271 19.8343831,3.33427119 C19.5149593,3.65277966 19.1342136,3.8120339 18.6921458,3.8120339 L12.2094,3.8120339 C9.9734339,3.8120339 8.06421356,4.60372881 6.48082373,6.18620339 C4.89834915,7.76867797 4.10665424,9.67881356 4.10665424,11.9147797 C4.10665424,14.1507458 4.89834915,16.0608814 6.48082373,17.6433559 C8.06421356,19.2258305 9.9734339,20.0175254 12.2094,20.0175254 L18.6921458,20.0175254 C19.1342136,20.0175254 19.5149593,20.1767797 19.8343831,20.4952881 C20.1528915,20.8137966 20.313061,21.1954576 20.313061,21.6375254 C20.313061,22.0805085 20.1528915,22.4612542 19.8343831,22.780678 C19.5149593,23.0991864 19.1342136,23.2584407 18.6921458,23.2584407 L12.2094,23.2584407 C9.07648475,23.2584407 6.40302712,22.1509831 4.18811186,19.9360678 C1.97319661,17.7220678 0.865738983,15.0476949 0.865738983,11.9147797 C0.865738983,8.78186441 1.97319661,6.10749153 4.18811186,3.89257627 C6.40302712,1.67857627 9.07648475,0.571118644 12.2094,0.571118644 L18.6921458,0.571118644 Z" id="Fill-1" fill="#232957"></path>
                        <path d="M12.2103153,0.977308475 C9.20370508,0.977308475 6.60163729,2.05547797 4.47550169,4.18069831 C2.35028136,6.30591864 1.27302712,8.90798644 1.27302712,11.9145966 C1.27302712,14.922122 2.35028136,17.5241898 4.47550169,19.6494102 C6.60072203,21.7746305 9.20370508,22.8518847 12.2103153,22.8518847 L18.6921458,22.8518847 C19.0252983,22.8518847 19.3053661,22.7347322 19.5479085,22.4931051 C19.7886203,22.251478 19.9066881,21.9714102 19.9066881,21.6373424 C19.9066881,21.3041898 19.7886203,21.024122 19.5469932,20.7824949 C19.3053661,20.5408678 19.0252983,20.4237153 18.6921458,20.4237153 L12.2103153,20.4237153 C9.87184068,20.4237153 7.84821356,19.5844271 6.19434915,17.9305627 C4.54048475,16.2766983 3.70119661,14.2530712 3.70119661,11.9145966 C3.70119661,9.57703729 4.54048475,7.55249492 6.19434915,5.89863051 C7.84821356,4.2447661 9.87275593,3.40547797 12.2103153,3.40547797 L18.6921458,3.40547797 C19.0252983,3.40547797 19.3062814,3.28832542 19.5469932,3.04669831 C19.7886203,2.80507119 19.9066881,2.52500339 19.9066881,2.19185085 C19.9066881,1.85778305 19.7886203,1.57863051 19.5479085,1.33700339 C19.3053661,1.09446102 19.0252983,0.977308475 18.6921458,0.977308475 L12.2103153,0.977308475 Z M18.6921458,23.6646305 L12.2103153,23.6646305 C8.98038305,23.6646305 6.18428136,22.5068339 3.90163729,20.2232746 C1.61807797,17.9406305 0.460281356,15.1454441 0.460281356,11.9145966 C0.460281356,8.68466441 1.61807797,5.88947797 3.90163729,3.60591864 C6.18519661,1.32235932 8.98038305,0.164562712 12.2103153,0.164562712 L18.6921458,0.164562712 C19.2449593,0.164562712 19.7254678,0.365918644 20.1217729,0.762223729 C20.518078,1.15852881 20.7194339,1.63995254 20.7194339,2.19185085 C20.7194339,2.74374915 20.518078,3.22517288 20.1217729,3.62147797 C19.7263831,4.01778305 19.2449593,4.21822373 18.6921458,4.21822373 L12.2103153,4.21822373 C10.0951627,4.21822373 8.26465424,4.97696949 6.76912881,6.47341017 C5.27268814,7.96893559 4.51394237,9.80035932 4.51394237,11.9145966 C4.51394237,14.0297492 5.27268814,15.8602576 6.76912881,17.3557831 C8.26465424,18.8522237 10.0951627,19.6109695 12.2103153,19.6109695 L18.6921458,19.6109695 C19.2449593,19.6109695 19.7254678,19.8123254 20.1217729,20.2077153 C20.518078,20.6049356 20.7194339,21.0863593 20.7194339,21.6373424 C20.7194339,22.1901559 20.518078,22.6715797 20.1217729,23.0678847 C19.7254678,23.4641898 19.2449593,23.6646305 18.6921458,23.6646305 L18.6921458,23.6646305 Z" id="Fill-3" fill="#222751"></path>
                        <path d="M33.1753119,7.20533898 C31.3283288,7.20533898 29.752261,7.85883051 28.4461932,9.16489831 C27.1392102,10.4718814 26.4857186,12.0479492 26.4857186,13.8940169 C26.4857186,15.7400847 27.1392102,17.3161525 28.4461932,18.6231356 C29.752261,19.9292034 31.3283288,20.5826949 33.1753119,20.5826949 C35.0213797,20.5826949 36.5974475,19.9292034 37.9044305,18.6231356 C39.2104983,17.3161525 39.8639898,15.7400847 39.8639898,13.8940169 C39.8639898,12.0479492 39.2104983,10.4718814 37.9044305,9.16489831 C36.5974475,7.85883051 35.0213797,7.20533898 33.1753119,7.20533898 M39.796261,7.27215254 C41.624939,9.10083051 42.5383627,11.3075085 42.5383627,13.8940169 C42.5383627,16.4805254 41.624939,18.6881186 39.796261,20.5158814 C37.9684983,22.3445593 35.7609051,23.2588983 33.1753119,23.2588983 C30.5888034,23.2588983 28.3812102,22.3445593 26.5534475,20.5158814 C24.7247695,18.6881186 23.8113458,16.4805254 23.8113458,13.8940169 C23.8113458,11.3075085 24.7247695,9.10083051 26.5534475,7.27215254 C28.3812102,5.44438983 30.5888034,4.53005085 33.1753119,4.53005085 C35.7609051,4.53005085 37.9684983,5.44438983 39.796261,7.27215254" id="Fill-5" fill="#232957"></path>
                        <path d="M33.1753119,7.61162034 C31.4253458,7.61162034 29.971922,8.21385763 28.7335831,9.45219661 C27.4952441,10.6914508 26.8930068,12.1439593 26.8930068,13.8939254 C26.8930068,15.6438915 27.4952441,17.0973153 28.7335831,18.3356542 C29.971922,19.5749085 31.4253458,20.1771458 33.1753119,20.1771458 C34.925278,20.1771458 36.3787017,19.5749085 37.6179559,18.3356542 C38.8553797,17.0973153 39.4576169,15.6438915 39.4576169,13.8939254 C39.4576169,12.1448746 38.8553797,10.6914508 37.6179559,9.45219661 C36.3787017,8.21385763 34.925278,7.61162034 33.1753119,7.61162034 M33.1753119,20.9889763 C31.2258203,20.9889763 29.5380915,20.289722 28.1597186,18.9104339 C26.7795153,17.5311458 26.080261,15.8434169 26.080261,13.8939254 C26.080261,11.9453492 26.7795153,10.2576203 28.1597186,8.8783322 C29.5380915,7.49812881 31.2258203,6.79887458 33.1753119,6.79887458 C35.1248034,6.79887458 36.8125322,7.49812881 38.1909051,8.8783322 C39.5711085,10.2585356 40.2703627,11.9453492 40.2703627,13.8939254 C40.2703627,15.8434169 39.5711085,17.5302305 38.1909051,18.9104339 C36.8125322,20.289722 35.1248034,20.9889763 33.1753119,20.9889763 M33.1753119,4.9363322 C30.713278,4.9363322 28.5807356,5.81863729 26.8408373,7.55945085 C25.1000237,9.30026441 24.2168034,11.4309763 24.2168034,13.8939254 C24.2168034,16.3568746 25.1000237,18.4885017 26.8408373,20.2284 C28.5807356,21.9701288 30.713278,22.8524339 33.1753119,22.8524339 C35.6373458,22.8524339 37.7689729,21.9701288 39.5097864,20.2284 C41.2506,18.4885017 42.1329051,16.3568746 42.1329051,13.8939254 C42.1329051,11.4309763 41.2506,9.30026441 39.5097864,7.55945085 C37.7689729,5.81863729 35.6373458,4.9363322 33.1753119,4.9363322 M33.1753119,23.6651797 C30.4890407,23.6651797 28.1642949,22.7023322 26.2660576,20.8031797 C24.3678203,18.9049424 23.4049729,16.5801966 23.4049729,13.8939254 C23.4049729,11.2076542 24.3678203,8.88382373 26.2660576,6.98467119 C28.1642949,5.0864339 30.4890407,4.12358644 33.1753119,4.12358644 C35.8615831,4.12358644 38.1854136,5.0864339 40.0845661,6.98467119 C41.9828034,8.88382373 42.9456508,11.2076542 42.9456508,13.8939254 C42.9456508,16.5801966 41.9828034,18.9049424 40.0845661,20.8031797 C38.1854136,22.7023322 35.8615831,23.6651797 33.1753119,23.6651797" id="Fill-7" fill="#222751"></path>
                        <path d="M52.8577627,20.582878 C54.7038305,20.582878 56.2798983,19.9293864 57.5868814,18.6233186 C58.8929492,17.3163356 59.5464407,15.7402678 59.5464407,13.8942 C59.5464407,12.0481322 58.8929492,10.4720644 57.5868814,9.16508136 C56.2798983,7.85901356 54.7038305,7.20552203 52.8577627,7.20552203 L48.8443729,7.20552203 L48.8443729,20.582878 L52.8577627,20.582878 Z M52.8577627,4.52931864 C55.4433559,4.52931864 57.6509492,5.44365763 59.4787119,7.27233559 C61.3073898,9.10101356 62.2217288,11.3076915 62.2217288,13.8942 C62.2217288,16.4807085 61.3073898,18.6883017 59.4787119,20.5160644 C57.6509492,22.3438271 55.4433559,23.2581661 52.8577627,23.2581661 L47.5062712,23.2581661 C47.1410847,23.2581661 46.8262373,23.1263695 46.5635593,22.8636915 C46.2999661,22.6010136 46.1681695,22.2861661 46.1681695,21.9200644 L46.1681695,5.86742034 C46.1681695,5.5022339 46.2999661,5.18738644 46.5635593,4.92470847 C46.8262373,4.66111525 47.1410847,4.52931864 47.5062712,4.52931864 L52.8577627,4.52931864 Z" id="Fill-9" fill="#232957"></path>
                        <path d="M49.2503797,20.1766881 L52.8573966,20.1766881 C54.608278,20.1766881 56.0598712,19.5744508 57.2991254,18.3361119 C58.5374644,17.0968576 59.1406169,15.6443492 59.1406169,13.8943831 C59.1406169,12.1444169 58.5374644,10.6919085 57.2991254,9.45265424 C56.0598712,8.2134 54.608278,7.61116271 52.8573966,7.61116271 L49.2503797,7.61116271 L49.2503797,20.1766881 Z M52.8573966,20.9894339 L48.4376339,20.9894339 L48.4376339,6.7993322 L52.8573966,6.7993322 C54.8068881,6.7993322 56.4946169,7.49858644 57.8739051,8.87787458 C59.2541085,10.258078 59.9524475,11.9458068 59.9524475,13.8943831 C59.9524475,15.8429593 59.2541085,17.5306881 57.8739051,18.9099763 C56.4946169,20.2901797 54.8068881,20.9894339 52.8573966,20.9894339 L52.8573966,20.9894339 Z M47.5068203,4.93587458 C47.2478034,4.93587458 47.0391254,5.02373898 46.8505831,5.2113661 C46.6629559,5.39899322 46.5750915,5.60858644 46.5750915,5.86760339 L46.5750915,21.9202475 C46.5750915,22.1801797 46.6629559,22.3888576 46.8505831,22.5764847 C47.0391254,22.7650271 47.2478034,22.8519763 47.5068203,22.8519763 L52.8573966,22.8519763 C55.3203458,22.8519763 57.4510576,21.9696712 59.1918712,20.2288576 C60.9336,18.4880441 61.8159051,16.3573322 61.8159051,13.8943831 C61.8159051,11.4314339 60.9336,9.30072203 59.1918712,7.55899322 C57.4510576,5.81817966 55.3203458,4.93587458 52.8573966,4.93587458 L47.5068203,4.93587458 Z M52.8573966,23.664722 L47.5068203,23.664722 C47.0308881,23.664722 46.6171932,23.491739 46.2767186,23.1512644 C45.9353288,22.8107898 45.7623458,22.3961797 45.7623458,21.9202475 L45.7623458,5.86760339 C45.7623458,5.39167119 45.9353288,4.97797627 46.2767186,4.63658644 C46.6171932,4.29611186 47.0308881,4.12312881 47.5068203,4.12312881 L52.8573966,4.12312881 C55.5436678,4.12312881 57.8674983,5.08597627 59.7666508,6.98512881 C61.6648881,8.88428136 62.6277356,11.2081119 62.6277356,13.8943831 C62.6277356,16.579739 61.6648881,18.9044847 59.7666508,20.8036373 C57.8674983,22.7018746 55.5436678,23.664722 52.8573966,23.664722 L52.8573966,23.664722 Z" id="Fill-11" fill="#222751"></path>
                        <path d="M65.4451627,5.86732881 C65.4451627,5.50214237 65.5769593,5.18729492 65.8405525,4.92461695 C66.1032305,4.66193898 66.4171627,4.53014237 66.7832644,4.53014237 C67.1484508,4.53014237 67.4632983,4.66193898 67.7259763,4.92461695 C67.9886542,5.18729492 68.1213661,5.50214237 68.1213661,5.86732881 L68.1213661,21.9208881 C68.1213661,22.2860746 67.9886542,22.600922 67.7259763,22.8636 C67.4632983,23.126278 67.1484508,23.2580746 66.7832644,23.2580746 C66.4171627,23.2580746 66.1032305,23.126278 65.8405525,22.8636 C65.5769593,22.600922 65.4451627,22.2860746 65.4451627,21.9208881 L65.4451627,5.86732881 Z" id="Fill-13" fill="#232957"></path>
                        <path d="M66.7832644,4.9359661 C66.5242475,4.9359661 66.3155695,5.02383051 66.1270271,5.21145763 C65.9394,5.39908475 65.8515356,5.60776271 65.8515356,5.86769492 L65.8515356,21.920339 C65.8515356,22.1802712 65.9394,22.3880339 66.1270271,22.575661 C66.3155695,22.7642034 66.5242475,22.8520678 66.7832644,22.8520678 C67.0422814,22.8520678 67.2518746,22.7642034 67.4395017,22.5765763 C67.6271288,22.3880339 67.7149932,22.1802712 67.7149932,21.920339 L67.7149932,5.86769492 C67.7149932,5.60867797 67.6271288,5.4 67.4385864,5.21145763 C67.2518746,5.02383051 67.0422814,4.9359661 66.7832644,4.9359661 M66.7832644,23.6648136 C66.3073322,23.6648136 65.8936373,23.4918305 65.5531627,23.1504407 C65.2117729,22.8108814 65.0397051,22.3962712 65.0397051,21.920339 L65.0397051,5.86769492 C65.0397051,5.39176271 65.2117729,4.9780678 65.5531627,4.63667797 C65.8936373,4.29620339 66.3073322,4.12322034 66.7832644,4.12322034 C67.2591966,4.12322034 67.6728915,4.29620339 68.0142814,4.63667797 C68.3547559,4.97898305 68.5268237,5.39267797 68.5268237,5.86769492 L68.5268237,21.920339 C68.5268237,22.3962712 68.3547559,22.8099661 68.0142814,23.1504407 C67.6728915,23.4918305 67.2591966,23.6648136 66.7832644,23.6648136" id="Fill-15" fill="#222751"></path>
                        <path d="M89.5761153,0.571118644 C90.0190983,0.571118644 90.3998441,0.730372881 90.7183525,1.04888136 C91.036861,1.36830508 91.1970305,1.74905085 91.1970305,2.1920339 C91.1970305,2.63501695 91.036861,3.01576271 90.7183525,3.33427119 C90.3998441,3.65277966 90.0190983,3.8120339 89.5761153,3.8120339 L83.0942847,3.8120339 C80.8583186,3.8120339 78.9481831,4.60372881 77.3657085,6.18620339 C75.7832339,7.76867797 74.991539,9.67881356 74.991539,11.9147797 C74.991539,14.1507458 75.7832339,16.0608814 77.3657085,17.6433559 C78.9481831,19.2258305 80.8583186,20.0175254 83.0942847,20.0175254 L87.9552,20.0175254 L87.9552,13.5356949 L83.0942847,13.5356949 C82.6513017,13.5356949 82.2705559,13.3755254 81.9520475,13.0570169 C81.6326237,12.7385085 81.4733695,12.3577627 81.4733695,11.9147797 C81.4733695,11.4717966 81.6326237,11.0910508 81.9520475,10.7725424 C82.2705559,10.4540339 82.6513017,10.2947797 83.0942847,10.2947797 L89.5761153,10.2947797 C90.0190983,10.2947797 90.3998441,10.4540339 90.7183525,10.7725424 C91.036861,11.0910508 91.1970305,11.4717966 91.1970305,11.9147797 L91.1970305,21.6375254 C91.1970305,22.0805085 91.036861,22.4612542 90.7183525,22.780678 C90.3998441,23.0991864 90.0190983,23.2584407 89.5761153,23.2584407 L83.0942847,23.2584407 C79.9604542,23.2584407 77.2869966,22.1509831 75.0720814,19.9360678 C72.8571661,17.7220678 71.7497085,15.0476949 71.7497085,11.9147797 C71.7497085,8.78186441 72.8571661,6.10749153 75.0720814,3.89257627 C77.2869966,1.67857627 79.9604542,0.571118644 83.0942847,0.571118644 L89.5761153,0.571118644 Z" id="Fill-17" fill="#A11C56"></path>
                        <path d="M83.0941932,0.77439661 C80.0317525,0.77439661 77.3811763,1.87178644 75.2166,4.03636271 C73.0511085,6.20185424 71.9537186,8.85243051 71.9537186,11.9148712 C71.9537186,14.9773119 73.0511085,17.6278881 75.2166,19.7924644 C77.3811763,21.9579559 80.0317525,23.0553458 83.0941932,23.0553458 L89.5760237,23.0553458 C89.9668373,23.0553458 90.2935831,22.9180576 90.5754814,22.6370746 C90.8564644,22.3551763 90.9937525,22.0284305 90.9937525,21.6376169 L90.9937525,11.9148712 C90.9937525,11.5249729 90.8564644,11.1982271 90.5754814,10.9163288 C90.2926678,10.6335153 89.9668373,10.4971424 89.5760237,10.4971424 L83.0941932,10.4971424 C82.7033797,10.4971424 82.3775492,10.6335153 82.0947356,10.9163288 C81.8137525,11.1973119 81.6764644,11.5240576 81.6764644,11.9148712 C81.6764644,12.3056847 81.8137525,12.6324305 82.0947356,12.9134136 C82.3775492,13.1953119 82.7033797,13.3326 83.0941932,13.3326 L88.1582949,13.3326 L88.1582949,20.2208034 L83.0941932,20.2208034 C80.8124644,20.2208034 78.8373458,19.4016508 77.221922,17.7862271 C75.6074136,16.1726339 74.7891763,14.1975153 74.7891763,11.9148712 C74.7891763,9.63314237 75.6074136,7.65710847 77.221922,6.0426 C78.8373458,4.42809153 80.8124644,3.60893898 83.0941932,3.60893898 L89.5760237,3.60893898 C89.9668373,3.60893898 90.2935831,3.47165085 90.5754814,3.1906678 C90.8564644,2.90876949 90.9937525,2.58202373 90.9937525,2.19121017 C90.9937525,1.80131186 90.8564644,1.4745661 90.5754814,1.1926678 C90.2935831,0.910769492 89.9668373,0.77439661 89.5760237,0.77439661 L83.0941932,0.77439661 Z M89.5760237,23.4617186 L83.0941932,23.4617186 C79.9200915,23.4617186 77.1724983,22.3240576 74.9292102,20.0798542 C72.6850068,17.8365661 71.5473458,15.0898881 71.5473458,11.9148712 C71.5473458,8.74076949 72.6850068,5.99317627 74.9292102,3.74897288 C77.1724983,1.50568475 79.9200915,0.368023729 83.0941932,0.368023729 L89.5760237,0.368023729 C90.0730068,0.368023729 90.505922,0.549244068 90.8619559,0.90619322 C91.2189051,1.26222712 91.4001254,1.69514237 91.4001254,2.19121017 C91.4001254,2.68819322 91.2189051,3.12019322 90.8619559,3.47805763 C90.505922,3.83409153 90.0730068,4.01531186 89.5760237,4.01531186 L83.0941932,4.01531186 C80.9241254,4.01531186 79.0451085,4.79419322 77.5093119,6.32998983 C75.9735153,7.86578644 75.1946339,9.74388814 75.1946339,11.9148712 C75.1946339,14.084939 75.9735153,15.9648712 77.5093119,17.4997525 C79.0451085,19.0355492 80.9241254,19.8144305 83.0941932,19.8144305 L87.7528373,19.8144305 L87.7528373,13.7380576 L83.0941932,13.7380576 C82.5972102,13.7380576 82.1642949,13.5577525 81.808261,13.2008034 C81.4513119,12.8447695 81.2710068,12.4118542 81.2710068,11.9148712 C81.2710068,11.4178881 81.4513119,10.9849729 81.808261,10.628939 C82.1652102,10.2719898 82.5972102,10.0907695 83.0941932,10.0907695 L89.5760237,10.0907695 C90.0730068,10.0907695 90.5050068,10.2719898 90.8619559,10.628939 C91.2189051,10.9858881 91.4001254,11.4178881 91.4001254,11.9148712 L91.4001254,21.6376169 C91.4001254,22.1336847 91.2189051,22.5675153 90.8619559,22.9244644 C90.505922,23.2804983 90.0730068,23.4617186 89.5760237,23.4617186 L89.5760237,23.4617186 Z" id="Fill-19" fill="#A11C56"></path>
                        <path d="M103.653458,7.20533898 C101.806475,7.20533898 100.230407,7.85883051 98.924339,9.16489831 C97.6173559,10.4718814 96.9638644,12.0479492 96.9638644,13.8940169 C96.9638644,15.7400847 97.6173559,17.3161525 98.924339,18.6231356 C100.230407,19.9292034 101.806475,20.5826949 103.653458,20.5826949 C105.499525,20.5826949 107.075593,19.9292034 108.382576,18.6231356 C109.688644,17.3161525 110.342136,15.7400847 110.342136,13.8940169 C110.342136,12.0479492 109.688644,10.4718814 108.382576,9.16489831 C107.075593,7.85883051 105.499525,7.20533898 103.653458,7.20533898 M110.274407,7.27215254 C112.103085,9.10083051 113.016508,11.3075085 113.016508,13.8940169 C113.016508,16.4805254 112.103085,18.6881186 110.274407,20.5158814 C108.446644,22.3445593 106.239051,23.2588983 103.653458,23.2588983 C101.066949,23.2588983 98.8593559,22.3445593 97.0315932,20.5158814 C95.2029153,18.6881186 94.2894915,16.4805254 94.2894915,13.8940169 C94.2894915,11.3075085 95.2029153,9.10083051 97.0315932,7.27215254 C98.8593559,5.44438983 101.066949,4.53005085 103.653458,4.53005085 C106.239051,4.53005085 108.446644,5.44438983 110.274407,7.27215254" id="Fill-21" fill="#A11C56"></path>
                        <path d="M103.653458,7.40825085 C101.871458,7.40825085 100.328339,8.04801356 99.0680339,9.3092339 C97.8068136,10.569539 97.1679661,12.1126576 97.1679661,13.8937424 C97.1679661,15.6757424 97.8068136,17.218861 99.0680339,18.4791661 C100.328339,19.7403864 101.871458,20.3801492 103.653458,20.3801492 C105.434542,20.3801492 106.977661,19.7403864 108.238881,18.4791661 C109.500102,17.2179458 110.138949,15.6757424 110.138949,13.8937424 C110.138949,12.1126576 109.500102,10.5704542 108.238881,9.3092339 C106.977661,8.04801356 105.434542,7.40825085 103.653458,7.40825085 M103.653458,20.7856068 C101.759797,20.7856068 100.120576,20.1064881 98.7815593,18.7665559 C97.4407119,17.4266237 96.7615932,15.7874034 96.7615932,13.8937424 C96.7615932,12.0009966 97.4407119,10.3617763 98.7815593,9.02184407 C100.120576,7.68191186 101.759797,7.00187797 103.653458,7.00187797 C105.546203,7.00187797 107.185424,7.68191186 108.525356,9.02184407 C109.866203,10.3617763 110.545322,12.0019119 110.545322,13.8937424 C110.545322,15.7874034 109.866203,17.4266237 108.525356,18.7665559 C107.185424,20.1064881 105.546203,20.7856068 103.653458,20.7856068 M103.653458,4.73296271 C101.134678,4.73296271 98.9545424,5.63540339 97.1752881,7.41557288 C95.3951186,9.19574237 94.4917627,11.3749627 94.4917627,13.8937424 C94.4917627,16.4134373 95.3951186,18.5926576 97.1752881,20.3728271 C98.9545424,22.1520814 101.134678,23.0554373 103.653458,23.0554373 C106.171322,23.0554373 108.351458,22.1520814 110.131627,20.3728271 C111.911797,18.5926576 112.814237,16.4134373 112.814237,13.8937424 C112.814237,11.375878 111.911797,9.19665763 110.131627,7.41557288 C108.351458,5.63540339 106.171322,4.73296271 103.653458,4.73296271 M103.653458,23.4618102 C101.023017,23.4618102 98.7467797,22.5190983 96.8878983,20.6593017 C95.0290169,18.8013356 94.0863051,16.5250983 94.0863051,13.8937424 C94.0863051,11.2642169 95.0290169,8.98797966 96.8878983,7.12818305 C98.7467797,5.26930169 101.023017,4.32658983 103.653458,4.32658983 C106.282983,4.32658983 108.55922,5.26930169 110.419017,7.12818305 C112.277898,8.98797966 113.22061,11.2642169 113.22061,13.8937424 C113.22061,16.5241831 112.277898,18.8004203 110.419017,20.6593017 C108.55922,22.5190983 106.282983,23.4618102 103.653458,23.4618102" id="Fill-23" fill="#A11C56"></path>
                        <path d="M32.4218746,30.706139 C32.4273661,30.7482407 32.452078,30.7821051 32.4996712,30.8068169 C32.5472644,30.8315288 32.6067559,30.8507492 32.679061,30.864478 C32.7522814,30.8772915 32.833739,30.8882746 32.9252644,30.8965119 C33.0149593,30.9038339 33.1083153,30.9129864 33.2025864,30.9212237 C33.3032644,30.9303763 33.3883831,30.929461 33.4579424,30.9175627 C33.5275017,30.9065797 33.5842475,30.8772915 33.6272644,30.8306136 C33.6711966,30.7830203 33.7032305,30.7152915 33.7242814,30.6274271 C33.7435017,30.5386475 33.7563153,30.4214949 33.7608915,30.2759695 L33.7672983,29.8988847 C33.7700441,29.7515288 33.7654678,29.6215627 33.7544847,29.5108169 C33.7425864,29.4000712 33.7169593,29.3076305 33.6766881,29.2334949 C33.6364169,29.1593593 33.5787559,29.1044441 33.5018746,29.0669186 C33.4259085,29.0303085 33.3252305,29.0110881 33.2025864,29.0110881 C33.0415017,29.0110881 32.9097051,29.0211559 32.8071966,29.0403763 C32.7056034,29.0595966 32.6259763,29.082478 32.5683153,29.1108508 C32.5115695,29.1392237 32.4731288,29.1685119 32.452078,29.1996305 C32.4328576,29.2316644 32.4218746,29.2582068 32.4218746,29.2801729 L32.4218746,30.706139 Z M33.4442136,31.6882068 C33.3801458,31.6882068 33.3060102,31.6872915 33.2245525,31.6863763 C33.1421797,31.685461 33.0561458,31.6808847 32.9673661,31.6726475 C32.8767559,31.6653254 32.7861458,31.6515966 32.6927898,31.6323763 C32.5994339,31.6131559 32.5106542,31.5847831 32.4218746,31.5463424 L32.4218746,32.8780373 C32.4218746,32.9228847 32.4154678,32.9594949 32.4026542,32.9878678 C32.3889254,33.0153254 32.3697051,33.0372915 32.3468237,33.0528508 C32.3230271,33.0693254 32.2946542,33.0793932 32.2607898,33.0848847 C32.2269254,33.0903763 32.1894,33.093122 32.1463831,33.093122 C32.088722,33.093122 32.0219085,33.089461 31.9496034,33.082139 C31.8763831,33.0739017 31.8086542,33.0592576 31.7455017,33.0382068 C31.6805186,33.0162407 31.6265186,32.9869525 31.5816712,32.9475966 C31.5368237,32.9082407 31.5148576,32.8560712 31.5148576,32.7910881 L31.5148576,28.9113254 C31.5148576,28.8252915 31.5432305,28.7502407 31.6018068,28.6843424 C31.6603831,28.6175288 31.7381797,28.5598678 31.8370271,28.5104441 C31.9358746,28.4610203 32.0511966,28.4198339 32.182078,28.3859695 C32.3129593,28.3521051 32.4493322,28.3246475 32.5921119,28.3035966 C32.7348915,28.2825458 32.8795017,28.2669864 33.0259424,28.2587492 C33.1723831,28.2495966 33.3124169,28.2450203 33.4442136,28.2450203 C33.6959085,28.2450203 33.9009254,28.2889525 34.0620102,28.3777322 C34.2221797,28.4665119 34.3475695,28.5900712 34.4381797,28.7511559 C34.5287898,28.9113254 34.5910271,29.1026136 34.6248915,29.3241051 C34.6578407,29.5455966 34.6752305,29.7899695 34.6752305,30.0535627 L34.6752305,30.0874271 C34.6752305,30.3116644 34.6569254,30.5203424 34.623061,30.7143763 C34.5882814,30.9084102 34.5251288,31.0777322 34.4326881,31.2223424 C34.3411627,31.3669525 34.2157729,31.4804441 34.0565186,31.5637322 C33.8972644,31.6461051 33.694078,31.6882068 33.4442136,31.6882068 L33.4442136,31.6882068 Z" id="Fill-25" fill="#818181"></path>
                        <path d="M38.0099593,30.9483153 C38.1719593,30.9483153 38.2982644,30.9281797 38.3907051,30.886078 C38.4822305,30.8448915 38.5508746,30.7854 38.595722,30.7076034 C38.6396542,30.630722 38.6680271,30.5346203 38.6790102,30.4220441 C38.6909085,30.3085525 38.6964,30.1795017 38.6964,30.033061 L38.6964,29.8994339 C38.6964,29.755739 38.6909085,29.6266881 38.6790102,29.5122814 C38.6680271,29.3987898 38.6396542,29.3026881 38.595722,29.2248915 C38.5508746,29.1480102 38.4822305,29.0885186 38.3907051,29.0464169 C38.2982644,29.0052305 38.1719593,28.9841797 38.0099593,28.9841797 L37.9632814,28.9841797 C37.8012814,28.9841797 37.6758915,29.0052305 37.5834508,29.0464169 C37.4919254,29.0885186 37.4223661,29.1480102 37.3784339,29.2248915 C37.3335864,29.3026881 37.3052136,29.3987898 37.2942305,29.5122814 C37.2832475,29.6266881 37.2768407,29.755739 37.2768407,29.8994339 L37.2768407,30.033061 C37.2768407,30.1795017 37.2832475,30.3085525 37.2942305,30.4220441 C37.3052136,30.5346203 37.3335864,30.630722 37.3784339,30.7076034 C37.4223661,30.7854 37.4919254,30.8448915 37.5834508,30.886078 C37.6758915,30.9281797 37.8012814,30.9483153 37.9632814,30.9483153 L38.0099593,30.9483153 Z M37.9770102,31.6878407 C37.7362983,31.6878407 37.5312814,31.6667898 37.3582983,31.6237729 C37.1853153,31.5816712 37.0388746,31.5212644 36.921722,31.4443831 C36.802739,31.3675017 36.7075525,31.275061 36.637078,31.1679763 C36.5656881,31.062722 36.5107729,30.9455695 36.4714169,30.8183492 C36.432061,30.6920441 36.4073492,30.5565864 36.3945356,30.4138068 C36.3826373,30.2701119 36.3762305,30.1236712 36.3762305,29.9735695 L36.3762305,29.9598407 C36.3762305,29.809739 36.3826373,29.6623831 36.3945356,29.5186881 C36.4073492,29.3759085 36.432061,29.2404508 36.4714169,29.1141458 C36.5107729,28.9869254 36.5656881,28.8706881 36.637078,28.7645186 C36.7075525,28.6583492 36.802739,28.5659085 36.921722,28.4881119 C37.0388746,28.4112305 37.1853153,28.351739 37.3582983,28.308722 C37.5312814,28.2657051 37.7362983,28.2446542 37.9770102,28.2446542 L37.9971458,28.2446542 C38.2369424,28.2446542 38.4437898,28.2657051 38.6149424,28.308722 C38.7888407,28.351739 38.9343661,28.4112305 39.0533492,28.4881119 C39.1723322,28.5659085 39.2666034,28.6583492 39.3361627,28.7645186 C39.4066373,28.8706881 39.4624678,28.9869254 39.5018237,29.1141458 C39.5411797,29.2404508 39.5668068,29.3759085 39.5796203,29.5186881 C39.5915186,29.6623831 39.5970102,29.809739 39.5970102,29.9598407 L39.5970102,29.9735695 C39.5970102,30.1236712 39.5915186,30.2701119 39.5796203,30.4138068 C39.5668068,30.5565864 39.5411797,30.6920441 39.5018237,30.8183492 C39.4624678,30.9455695 39.4066373,31.062722 39.3361627,31.1679763 C39.2666034,31.275061 39.1723322,31.3675017 39.0533492,31.4443831 C38.9343661,31.5212644 38.7888407,31.5816712 38.6149424,31.6237729 C38.4437898,31.6667898 38.2369424,31.6878407 37.9971458,31.6878407 L37.9770102,31.6878407 Z" id="Fill-27" fill="#818181"></path>
                        <path d="M43.7025661,28.4868305 L43.7767017,28.4868305 C43.8004983,28.4868305 43.8261254,28.488661 43.849922,28.4932373 C43.9405322,28.5051356 44.0265661,28.5243559 44.1107695,28.5527288 C44.1949729,28.5811017 44.270939,28.6195424 44.3395831,28.6689661 C44.4082271,28.7174746 44.4649729,28.7778814 44.5107356,28.8483559 C44.5574136,28.9188305 44.5857864,29.0002881 44.5976847,29.0927288 L44.8191763,30.8472712 C44.8255831,30.9058475 44.8457186,30.9342203 44.8786678,30.9342203 C44.8997186,30.9342203 44.9134475,30.9250678 44.9216847,30.9067627 C44.9290068,30.8875424 44.9354136,30.8674068 44.9399898,30.8472712 L45.3436169,28.4328305 C45.3500237,28.3888983 45.3664983,28.3532034 45.3921254,28.3275763 C45.4177525,28.3010339 45.4479559,28.2827288 45.4827356,28.2699153 C45.5166,28.2580169 45.5541254,28.2506949 45.5934814,28.2479492 C45.6328373,28.2461186 45.6676169,28.2452034 45.6996508,28.2452034 C45.7646339,28.2452034 45.8277864,28.2543559 45.8900237,28.2735763 C45.9513458,28.2927966 46.0053458,28.3202542 46.0511085,28.3577797 C46.0968712,28.3943898 46.1316508,28.4392373 46.1554475,28.4904915 C46.1783288,28.542661 46.1856508,28.5994068 46.1774136,28.6616441 L45.7875153,31.0559492 C45.7628034,31.2087966 45.7197864,31.3277797 45.6593797,31.4119831 C45.5989729,31.4980169 45.5284983,31.5602542 45.4488712,31.6005254 C45.3692441,31.6407966 45.2850407,31.6655085 45.1935153,31.674661 C45.1029051,31.6838136 45.0159559,31.6883898 44.9335831,31.6883898 L44.8319898,31.6883898 C44.7404644,31.6883898 44.6498542,31.6792373 44.5610746,31.6609322 C44.4732102,31.6435424 44.3926678,31.6105932 44.3194475,31.5639153 C44.2471424,31.516322 44.1839898,31.4522542 44.1327356,31.3717119 C44.0805661,31.2911695 44.0457864,31.1877458 44.0256508,31.0623559 L43.7693797,29.3004915 C43.7648034,29.2693729 43.7556508,29.2510678 43.7410068,29.2474068 C43.7263627,29.2428305 43.7144644,29.2400847 43.7025661,29.2400847 C43.6906678,29.2400847 43.6787695,29.2428305 43.6641254,29.2474068 C43.6485661,29.2510678 43.6403288,29.2693729 43.6348373,29.3004915 L43.3794814,31.0623559 C43.3593458,31.1877458 43.3236508,31.2911695 43.2714814,31.3717119 C43.2202271,31.4522542 43.1579898,31.516322 43.0856847,31.5639153 C43.0124644,31.6105932 42.931922,31.6435424 42.8440576,31.6609322 C42.755278,31.6792373 42.6646678,31.6883898 42.5731424,31.6883898 L42.4715492,31.6883898 C42.3873458,31.6883898 42.2994814,31.6838136 42.2097864,31.674661 C42.1200915,31.6655085 42.0349729,31.6407966 41.956261,31.6005254 C41.8766339,31.5602542 41.8061593,31.4980169 41.7457525,31.4119831 C41.6853458,31.3277797 41.6423288,31.2087966 41.6185322,31.0559492 L41.2277186,28.6616441 C41.2167356,28.5994068 41.2231424,28.542661 41.2478542,28.4904915 C41.2725661,28.4392373 41.308261,28.3943898 41.3540237,28.3577797 C41.3997864,28.3202542 41.4537864,28.2927966 41.5151085,28.2735763 C41.5773458,28.2543559 41.6404983,28.2452034 41.7045661,28.2452034 C41.7366,28.2452034 41.7722949,28.2461186 41.8116508,28.2479492 C41.8510068,28.2506949 41.8876169,28.2580169 41.9223966,28.2699153 C41.9571763,28.2827288 41.9873797,28.3010339 42.0120915,28.3275763 C42.0395492,28.3532034 42.0551085,28.3888983 42.0615153,28.4328305 L42.4642271,30.8472712 C42.4697186,30.8674068 42.4761254,30.8875424 42.4834475,30.9067627 C42.4916847,30.9250678 42.5044983,30.9342203 42.5255492,30.9342203 C42.5594136,30.9342203 42.5786339,30.9058475 42.5859559,30.8472712 L42.8074475,29.0927288 C42.8193458,29.0002881 42.8477186,28.9188305 42.8934814,28.8483559 C42.9401593,28.7778814 42.9969051,28.7174746 43.0655492,28.6689661 C43.133278,28.6195424 43.2101593,28.5811017 43.2943627,28.5527288 C43.3785661,28.5243559 43.4646,28.5051356 43.5542949,28.4932373 C43.5790068,28.488661 43.6037186,28.4868305 43.6284305,28.4868305 L43.7025661,28.4868305 Z" id="Fill-29" fill="#818181"></path>
                        <path d="M49.481939,28.9645017 C49.3107864,28.9645017 49.1753288,28.9828068 49.0737356,29.0185017 C48.9712271,29.0541966 48.8916,29.1063661 48.8357695,29.1740949 C48.779939,29.242739 48.7424136,29.3278576 48.7241085,29.4303661 C48.7039729,29.5319593 48.6939051,29.6509424 48.6911593,29.7845695 C48.7744475,29.7781627 48.8659729,29.7699254 48.9657356,29.7598576 C49.0654983,29.7497898 49.1634305,29.7388068 49.2613627,29.7278237 C49.3583797,29.7159254 49.4526508,29.7049424 49.5414305,29.6939593 C49.6320407,29.6829763 49.7098373,29.6701627 49.7775661,29.6573492 C49.8809898,29.6372136 49.9505492,29.6024339 49.9862441,29.5548407 C50.021939,29.5063322 50.0393288,29.4532475 50.0393288,29.3946712 C50.0393288,29.3187051 50.0246847,29.2528068 49.9944814,29.1978915 C49.964278,29.1429763 49.9230915,29.0981288 49.8736678,29.0633492 C49.8233288,29.0285695 49.7647525,29.0038576 49.6961085,28.9882983 C49.6292949,28.972739 49.5579051,28.9645017 49.481939,28.9645017 M50.2480068,30.222061 C50.140922,30.2467729 50.0228542,30.2696542 49.8938034,30.2907051 C49.7647525,30.3117559 49.6320407,30.3318915 49.4956678,30.3492814 C49.3583797,30.3675864 49.2210915,30.384061 49.0828881,30.3987051 C48.9456,30.4133492 48.8147186,30.4261627 48.6911593,30.4371458 C48.6966508,30.5131119 48.7085492,30.5817559 48.7286847,30.6421627 C48.7488203,30.7025695 48.7808542,30.754739 48.8257017,30.7968407 C48.8705492,30.8398576 48.9318712,30.8718915 49.0105831,30.8938576 C49.0892949,30.916739 49.1899729,30.9286373 49.3126169,30.9286373 C49.4462441,30.9286373 49.5670576,30.9213153 49.6787186,30.9085017 C49.7894644,30.8938576 49.8901424,30.8792136 49.9807525,30.862739 C50.072278,30.8453492 50.1519051,30.8297898 50.2232949,30.8151458 C50.2937695,30.8005017 50.3560068,30.7940949 50.4100068,30.7940949 C50.464922,30.7940949 50.5106847,30.8023322 50.5454644,30.8206373 C50.5802441,30.8380271 50.6067864,30.8609085 50.6260068,30.8892814 C50.6452271,30.9176542 50.6580407,30.9487729 50.6635322,30.9835525 C50.6690237,31.0183322 50.6717695,31.0531119 50.6717695,31.089722 C50.6717695,31.1904 50.6406508,31.2782644 50.5774983,31.3533153 C50.515261,31.4283661 50.4255661,31.4906034 50.3102441,31.5400271 C50.194922,31.5894508 50.0548881,31.626061 49.8883119,31.6507729 C49.7226508,31.6754847 49.5386847,31.6882983 49.3336678,31.6882983 C49.0938712,31.6882983 48.8897695,31.6709085 48.7195322,31.6370441 C48.5492949,31.6040949 48.4074305,31.5546712 48.2911932,31.4878576 C48.1749559,31.4219593 48.0843458,31.3414169 48.0175322,31.2471458 C47.9516339,31.1537898 47.9012949,31.0448746 47.8656,30.9231458 C47.8317356,30.8005017 47.8088542,30.6659593 47.7987864,30.5176881 C47.7887186,30.3694169 47.7841424,30.211078 47.7841424,30.0408407 C47.7841424,29.7690102 47.8024475,29.5228068 47.8390576,29.3004 C47.8765831,29.0789085 47.9507186,28.8894508 48.0632949,28.7347729 C48.1758712,28.5782644 48.3360407,28.4574508 48.5428881,28.3732475 C48.7497356,28.2872136 49.0224814,28.2451119 49.3611254,28.2451119 C49.5780407,28.2451119 49.7775661,28.2634169 49.9587864,28.3000271 C50.140922,28.3366373 50.299261,28.3970441 50.4328881,28.4785017 C50.5683458,28.5608746 50.6763458,28.6661288 50.7578034,28.7960949 C50.839261,28.926061 50.8914305,29.0834847 50.9133966,29.2674508 C50.9280407,29.3974169 50.9262102,29.5136542 50.9124814,29.6161627 C50.8978373,29.7195864 50.8658034,29.8111119 50.8145492,29.890739 C50.7642102,29.9703661 50.6928203,30.0371797 50.6012949,30.0920949 C50.5097695,30.1470102 50.3917017,30.1909424 50.2480068,30.222061" id="Fill-31" fill="#818181"></path>
                        <path d="M54.2797932,28.2450203 C54.5333186,28.2514271 54.7273525,28.3008508 54.8637254,28.3932915 C54.9982678,28.4848169 55.0659966,28.6102068 55.0659966,28.769461 C55.0659966,28.8051559 55.0632508,28.8399356 55.0586746,28.8747153 C55.0522678,28.9104102 55.0403695,28.9415288 55.0211492,28.9699017 C55.0019288,28.9973593 54.9753864,29.0202407 54.9406068,29.0385458 C54.9058271,29.0568508 54.8600644,29.0650881 54.8042339,29.0650881 C54.7529797,29.0650881 54.710878,29.0623424 54.6788441,29.0550203 C54.6449797,29.0486136 54.6092847,29.0422068 54.5680983,29.0348847 C54.5278271,29.028478 54.4784034,29.0220712 54.4161661,29.0147492 C54.3539288,29.0083424 54.2678949,29.0046814 54.1589797,29.0046814 C54.0418271,29.0046814 53.9475559,29.0120034 53.8752508,29.0266475 C53.8020305,29.0412915 53.7443695,29.0586814 53.7031831,29.0788169 C53.6610814,29.0989525 53.6336237,29.1218339 53.6171492,29.1456305 C53.6025051,29.1703424 53.5942678,29.1932237 53.5942678,29.2133593 L53.5942678,31.4465797 C53.5942678,31.4996644 53.580539,31.5426814 53.5549119,31.5756305 C53.5292847,31.6076644 53.4954203,31.6323763 53.4533186,31.6488508 C53.4103017,31.6662407 53.3617932,31.6772237 53.3077932,31.6808847 C53.2547085,31.685461 53.198878,31.6882068 53.1439627,31.6882068 C53.0826407,31.6882068 53.0258949,31.685461 52.9700644,31.6790542 C52.9151492,31.674478 52.8666407,31.6625797 52.8236237,31.6461051 C52.781522,31.6287153 52.7476576,31.6040034 52.7229458,31.5719695 C52.6982339,31.5399356 52.6863356,31.4978339 52.6863356,31.4465797 L52.6863356,28.8435966 C52.6863356,28.7712915 52.7092169,28.7063085 52.7568102,28.6468169 C52.8044034,28.5873254 52.8675559,28.5342407 52.9490136,28.488478 C53.0295559,28.4427153 53.1219966,28.4042746 53.2290814,28.3731559 C53.3361661,28.341122 53.4478271,28.3154949 53.5658949,28.2953593 C53.6830475,28.2752237 53.8029458,28.2614949 53.9246746,28.2532576 C54.0473186,28.2450203 54.1653864,28.2431898 54.2797932,28.2450203" id="Fill-33" fill="#818181"></path>
                        <path d="M58.1937864,28.9645017 C58.0226339,28.9645017 57.8871763,28.9828068 57.7855831,29.0185017 C57.6830746,29.0541966 57.6034475,29.1063661 57.5476169,29.1740949 C57.4917864,29.242739 57.454261,29.3278576 57.4350407,29.4303661 C57.4158203,29.5319593 57.4057525,29.6509424 57.4030068,29.7845695 C57.4862949,29.7781627 57.5778203,29.7699254 57.6775831,29.7598576 C57.7773458,29.7497898 57.875278,29.7388068 57.9732102,29.7278237 C58.0702271,29.7159254 58.1644983,29.7049424 58.253278,29.6939593 C58.3438881,29.6829763 58.4216847,29.6701627 58.4894136,29.6573492 C58.5928373,29.6372136 58.6623966,29.6024339 58.6980915,29.5548407 C58.7337864,29.5063322 58.7511763,29.4532475 58.7511763,29.3946712 C58.7511763,29.3187051 58.7365322,29.2528068 58.7063288,29.1978915 C58.6761254,29.1429763 58.634939,29.0981288 58.5855153,29.0633492 C58.5351763,29.0285695 58.4766,29.0038576 58.4079559,28.9882983 C58.3411424,28.972739 58.2697525,28.9645017 58.1937864,28.9645017 M58.9598542,30.222061 C58.8527695,30.2467729 58.7337864,30.2696542 58.6056508,30.2907051 C58.4766,30.3117559 58.3438881,30.3318915 58.2075153,30.3492814 C58.0702271,30.3675864 57.932939,30.384061 57.7947356,30.3987051 C57.6565322,30.4133492 57.5265661,30.4261627 57.4030068,30.4371458 C57.4084983,30.5131119 57.4194814,30.5817559 57.4405322,30.6421627 C57.4606678,30.7025695 57.4927017,30.754739 57.5375492,30.7968407 C57.5823966,30.8398576 57.6437186,30.8718915 57.7224305,30.8938576 C57.8011424,30.916739 57.9018203,30.9286373 58.0244644,30.9286373 C58.1571763,30.9286373 58.2789051,30.9213153 58.3905661,30.9085017 C58.5013119,30.8938576 58.6019898,30.8792136 58.6926,30.862739 C58.7841254,30.8453492 58.8637525,30.8297898 58.9351424,30.8151458 C59.0056169,30.8005017 59.0678542,30.7940949 59.1218542,30.7940949 C59.1767695,30.7940949 59.2225322,30.8023322 59.2573119,30.8206373 C59.2920915,30.8380271 59.3186339,30.8609085 59.3378542,30.8892814 C59.3570746,30.9176542 59.3698881,30.9487729 59.3753797,30.9835525 C59.3808712,31.0183322 59.3836169,31.0531119 59.3836169,31.089722 C59.3836169,31.1904 59.3524983,31.2782644 59.2893458,31.3533153 C59.2271085,31.4283661 59.1374136,31.4906034 59.0220915,31.5400271 C58.9067695,31.5894508 58.7667356,31.626061 58.6001593,31.6507729 C58.4344983,31.6754847 58.2496169,31.6882983 58.0455153,31.6882983 C57.8057186,31.6882983 57.6016169,31.6709085 57.4313797,31.6370441 C57.2611424,31.6040949 57.119278,31.5546712 57.0030407,31.4878576 C56.8868034,31.4219593 56.7961932,31.3414169 56.7293797,31.2471458 C56.6634814,31.1537898 56.6122271,31.0448746 56.5774475,30.9231458 C56.5426678,30.8005017 56.5207017,30.6659593 56.5106339,30.5176881 C56.5005661,30.3694169 56.4959898,30.211078 56.4959898,30.0408407 C56.4959898,29.7690102 56.5142949,29.5228068 56.5509051,29.3004 C56.5884305,29.0789085 56.6625661,28.8894508 56.7751424,28.7347729 C56.8877186,28.5782644 57.0478881,28.4574508 57.2547356,28.3732475 C57.4615831,28.2872136 57.7334136,28.2451119 58.0720576,28.2451119 C58.2898881,28.2451119 58.4894136,28.2634169 58.6706339,28.3000271 C58.8527695,28.3366373 59.0111085,28.3970441 59.1447356,28.4785017 C59.279278,28.5608746 59.387278,28.6661288 59.4696508,28.7960949 C59.5511085,28.926061 59.603278,29.0834847 59.6252441,29.2674508 C59.6389729,29.3974169 59.6380576,29.5136542 59.6234136,29.6161627 C59.6096847,29.7195864 59.5776508,29.8111119 59.5263966,29.890739 C59.4760576,29.9703661 59.4046678,30.0371797 59.3131424,30.0920949 C59.2216169,30.1470102 59.1035492,30.1909424 58.9598542,30.222061" id="Fill-35" fill="#818181"></path>
                        <path d="M62.7494644,30.9214983 C62.9114644,30.9214983 63.0414305,30.9150915 63.1430237,30.902278 C63.2437017,30.8903797 63.3233288,30.8748203 63.3791593,30.8556 C63.4377356,30.8363797 63.4761763,30.8153288 63.4972271,30.7915322 C63.5191932,30.7686508 63.5301763,30.743939 63.5301763,30.7192271 L63.5301763,29.2941763 C63.5256,29.2511593 63.4990576,29.2145492 63.4532949,29.1834305 C63.4047864,29.1513966 63.3452949,29.1248542 63.2720746,29.1019729 C63.1997695,29.0800068 63.1173966,29.0617017 63.0267864,29.0470576 C62.9361763,29.0324136 62.8437356,29.0205153 62.7494644,29.0113627 C62.6487864,29.0022102 62.5636678,29.0040407 62.4941085,29.0150237 C62.4254644,29.0260068 62.3678034,29.0552949 62.3238712,29.1019729 C62.279939,29.1495661 62.2479051,29.2172949 62.2268542,29.3051593 C62.2048881,29.3948542 62.1939051,29.5110915 62.1911593,29.6575322 L62.1847525,30.0337017 C62.1801763,30.1810576 62.1838373,30.3110237 62.1966508,30.4217695 C62.2085492,30.5334305 62.2350915,30.6258712 62.2753627,30.6990915 C62.3156339,30.7732271 62.3732949,30.8290576 62.4483458,30.8656678 C62.5243119,30.902278 62.6240746,30.9214983 62.7494644,30.9214983 M62.506922,28.2452949 C62.5728203,28.2452949 62.6469559,28.2452949 62.7293288,28.2471254 C62.8117017,28.2480407 62.8986508,28.2535322 62.9883458,28.2636 C63.0780407,28.2736678 63.1686508,28.2892271 63.2610915,28.310278 C63.3517017,28.3313288 63.4423119,28.3633627 63.5301763,28.4063797 L63.5301763,27.0545492 C63.5301763,26.9648542 63.5548881,26.906278 63.6043119,26.8797356 C63.6528203,26.8531932 63.7205492,26.8394644 63.8047525,26.8394644 C63.8614983,26.8394644 63.9264814,26.8431254 64.0006169,26.8513627 C64.0738373,26.8596 64.1424814,26.8733288 64.2074644,26.8952949 C64.2706169,26.9163458 64.3255322,26.9474644 64.3703797,26.9877356 C64.4152271,27.0280068 64.4381085,27.079261 64.4381085,27.1424136 L64.4381085,31.0899051 C64.4381085,31.1750237 64.4079051,31.2482441 64.3502441,31.3113966 C64.2925831,31.3745492 64.2138712,31.4276339 64.1150237,31.4715661 C64.0161763,31.5145831 63.9017695,31.5511932 63.7699729,31.5804814 C63.6390915,31.6088542 63.5018034,31.6317356 63.359939,31.6472949 C63.2180746,31.6637695 63.0734644,31.6738373 62.9261085,31.6793288 C62.7787525,31.6848203 62.6396339,31.6875661 62.506922,31.6875661 C62.2543119,31.6875661 62.0474644,31.6436339 61.8891254,31.5548542 C61.7298712,31.4669898 61.6044814,31.3425153 61.5138712,31.1823458 C61.423261,31.021261 61.3601085,30.8308881 61.3271593,30.6103119 C61.2932949,30.3897356 61.2768203,30.1453627 61.2768203,29.8790237 L61.2768203,29.8451593 C61.2768203,29.6218373 61.2942102,29.4122441 61.3289898,29.2182102 C61.3637695,29.0241763 61.426922,28.8548542 61.5184475,28.7102441 C61.6108881,28.5656339 61.736278,28.4521424 61.8955322,28.3688542 C62.0547864,28.2864814 62.2588881,28.2452949 62.506922,28.2452949" id="Fill-37" fill="#818181"></path>
                        <path d="M69.3797492,29.0114542 C69.285478,29.0206068 69.1930373,29.0315898 69.1024271,29.0471492 C69.0118169,29.0617932 68.9294441,29.0800983 68.857139,29.1020644 C68.7839186,29.1249458 68.7235119,29.1514881 68.6759186,29.1826068 C68.6301559,29.2146407 68.6036136,29.2512508 68.5990373,29.2942678 L68.5990373,30.7193186 C68.5990373,30.7440305 68.6091051,30.7678271 68.6301559,30.7916237 C68.6493763,30.8154203 68.6887322,30.8364712 68.745478,30.8556915 C68.803139,30.8749119 68.8827661,30.8904712 68.9843593,30.9023695 C69.0868678,30.9151831 69.2177492,30.9215898 69.3797492,30.9215898 C69.5033085,30.9215898 69.6021559,30.9023695 69.6790373,30.8657593 C69.7550034,30.8291492 69.8135797,30.7733186 69.8538508,30.6991831 C69.894122,30.6259627 69.9197492,30.533522 69.9316475,30.421861 C69.9417153,30.3111153 69.9462915,30.1811492 69.944461,30.0337932 L69.9380542,29.6576237 C69.9325627,29.5111831 69.9206644,29.3940305 69.9005288,29.3052508 C69.8803932,29.2173864 69.8492746,29.1496576 69.8053424,29.1020644 C69.7614102,29.0553864 69.7037492,29.0260983 69.6351051,29.0151153 C69.5655458,29.0041322 69.4804271,29.0023017 69.3797492,29.0114542 L69.3797492,29.0114542 Z M68.5990373,28.4366746 C68.6869017,28.3936576 68.7775119,28.3597932 68.8699525,28.3341661 C68.9633085,28.308539 69.0548339,28.2884034 69.1436136,28.2746746 C69.2342237,28.261861 69.3202576,28.2536237 69.4008,28.2499627 C69.4831729,28.2472169 69.5563932,28.2453864 69.6213763,28.2453864 C69.8703254,28.2453864 70.0744271,28.2865729 70.2336814,28.3689458 C70.3920203,28.4522339 70.5183254,28.5657254 70.6107661,28.7103356 C70.7013763,28.8549458 70.7654441,29.0242678 70.8002237,29.2183017 C70.8350034,29.4123356 70.8523932,29.6219288 70.8523932,29.8452508 L70.8523932,29.8791153 C70.8523932,30.1454542 70.8359186,30.3898271 70.8020542,30.6104034 C70.7691051,30.8309797 70.7059525,31.0213525 70.6153424,31.1824373 C70.5247322,31.3426068 70.3984271,31.4670814 70.2382576,31.5549458 C70.0790034,31.6437254 69.8721559,31.6876576 69.6213763,31.6876576 C69.4895797,31.6876576 69.350461,31.6849119 69.2031051,31.6794203 C69.0557492,31.6739288 68.911139,31.6629458 68.7692746,31.6473864 C68.6274102,31.6318271 68.490122,31.6089458 68.3592407,31.5805729 C68.2274441,31.5512847 68.1130373,31.5146746 68.0141898,31.4716576 C67.9153424,31.4277254 67.8366305,31.3746407 67.7789695,31.3114881 C67.7213085,31.2483356 67.6911051,31.1751153 67.6911051,31.0899966 L67.6911051,27.1425051 C67.6911051,27.0793525 67.7139864,27.0280983 67.7588339,26.9878271 C67.8036814,26.9475559 67.8585966,26.9164373 67.9217492,26.8944712 C67.9867322,26.8734203 68.054461,26.8587763 68.1276814,26.8514542 C68.1999864,26.8432169 68.2649695,26.8395559 68.3235458,26.8395559 C68.3665627,26.8395559 68.4050034,26.8423017 68.4379525,26.8477932 C68.4718169,26.8532847 68.5001898,26.8642678 68.5239864,26.8798271 C68.5477831,26.8953864 68.5651729,26.9173525 68.5798169,26.9457254 C68.5926305,26.9731831 68.5990373,27.0097932 68.5990373,27.0546407 L68.5990373,28.4366746 Z" id="Fill-39" fill="#232957"></path>
                        <path d="M73.989061,30.8741797 C73.9936373,30.8924847 73.9982136,30.9062136 74.0027898,30.9162814 C74.0073661,30.9263492 74.0165186,30.9327559 74.032078,30.9345864 L74.0494678,30.9345864 L74.0659424,30.9345864 C74.0705186,30.9345864 74.0750949,30.9336712 74.0778407,30.9309254 C74.0815017,30.9290949 74.0842475,30.9272644 74.089739,30.9245186 L74.1602136,30.7030271 L74.7688576,28.7086881 C74.802722,28.5997729 74.8292644,28.513739 74.8494,28.4533322 C74.8695356,28.3929254 74.8924169,28.3471627 74.9189593,28.3169593 C74.9445864,28.2867559 74.9775356,28.2684508 75.0196373,28.2620441 C75.0608237,28.254722 75.1203153,28.2519763 75.1990271,28.2519763 C75.2576034,28.2519763 75.3216712,28.2620441 75.3921458,28.2830949 C75.4626203,28.305061 75.5248576,28.3398407 75.5770271,28.3883492 C75.6301119,28.4359424 75.666722,28.4990949 75.6877729,28.5778068 C75.709739,28.6565186 75.7015017,28.7535356 75.663061,28.8706881 L75.112078,30.5446881 C75.1102475,30.5629932 75.1065864,30.5776373 75.1020102,30.5886203 C75.0974339,30.5996034 75.0937729,30.6069254 75.0910271,30.6124169 L74.4192305,32.7239085 C74.3945186,32.8017051 74.3698068,32.8685186 74.3469254,32.9216034 C74.3231288,32.9756034 74.2947559,33.0186203 74.2608915,33.0515695 C74.2279424,33.0845186 74.1876712,33.1064847 74.140078,33.1202136 C74.0924847,33.1339424 74.0339085,33.1412644 73.9616034,33.1412644 C73.9011966,33.1412644 73.8389593,33.1321119 73.7739763,33.1156373 C73.708078,33.0982475 73.6531627,33.0680441 73.6074,33.0250271 C73.560722,32.9810949 73.5305186,32.9216034 73.5158746,32.8465525 C73.5021458,32.7715017 73.5131288,32.6763153 73.5515695,32.5619085 L73.8371288,31.6850949 C73.773061,31.6823492 73.708078,31.6741119 73.6458407,31.6576373 C73.5836034,31.642078 73.5231966,31.6137051 73.4664508,31.5716034 C73.4087898,31.5304169 73.3547898,31.4718407 73.3044508,31.3967898 C73.2541119,31.321739 73.2083492,31.2238068 73.1689932,31.1029932 L72.4358746,28.8706881 C72.3974339,28.7535356 72.3891966,28.6565186 72.4093322,28.5778068 C72.4312983,28.4990949 72.4688237,28.4359424 72.5209932,28.3883492 C72.574078,28.3398407 72.6354,28.305061 72.7067898,28.2830949 C72.7772644,28.2620441 72.8404169,28.2519763 72.8999085,28.2519763 C72.9758746,28.2519763 73.0353661,28.254722 73.0774678,28.2620441 C73.1204847,28.2684508 73.1543492,28.2867559 73.1799763,28.3169593 C73.2065186,28.3471627 73.2294,28.3929254 73.2486203,28.4533322 C73.2696712,28.513739 73.2962136,28.5997729 73.3291627,28.7086881 L73.989061,30.8741797 Z" id="Fill-41" fill="#232957"></path>
                        <path d="M82.1289661,26.9405085 C82.2003559,26.9405085 82.2571017,26.9469153 82.2973729,26.9606441 C82.3376441,26.9743729 82.3678475,26.996339 82.3861525,27.0274576 C82.4053729,27.0594915 82.4163559,27.1015932 82.4200169,27.1537627 C82.4227627,27.2068475 82.4245932,27.2718305 82.4245932,27.3505424 C82.4245932,27.4512203 82.4108644,27.5290169 82.380661,27.5839322 C82.3522881,27.6388475 82.3175085,27.6791186 82.2772373,27.7029153 C82.2360508,27.7285424 82.1957797,27.7422712 82.1555085,27.7468475 C82.1152373,27.7514237 82.0841186,27.7541695 82.0621525,27.7541695 L80.857678,27.7541695 L80.857678,31.4463051 C80.857678,31.4993898 80.8448644,31.5424068 80.8155763,31.5753559 C80.7881186,31.6083051 80.7524237,31.6321017 80.7084915,31.6494915 C80.6645593,31.6659661 80.6142203,31.6769492 80.5574746,31.6815254 C80.4998136,31.6861017 80.4430678,31.6879322 80.3872373,31.6879322 C80.3222542,31.6879322 80.2609322,31.6851864 80.2041864,31.6796949 C80.1465254,31.6742034 80.0961864,31.6632203 80.0522542,31.6458305 C80.0092373,31.6293559 79.9744576,31.6046441 79.9479153,31.5716949 C79.9232034,31.539661 79.9094746,31.4975593 79.9094746,31.4463051 L79.9094746,27.7541695 L78.7471017,27.7541695 C78.7242203,27.7541695 78.6940169,27.7505085 78.6555763,27.7422712 C78.6171356,27.7349492 78.5796102,27.7166441 78.543,27.6882712 C78.5063898,27.6608136 78.4734407,27.6205424 78.4459831,27.5674576 C78.4176102,27.5143729 78.4038814,27.4420678 78.4038814,27.3505424 C78.4038814,27.2635932 78.4066271,27.1922034 78.4112034,27.1382034 C78.4176102,27.0851186 78.4304237,27.0430169 78.4496441,27.0146441 C78.4706949,26.9853559 78.4990678,26.9652203 78.5347627,26.9551525 C78.5704576,26.9450847 78.6189661,26.9405085 78.6784576,26.9405085 L82.1289661,26.9405085 Z" id="Fill-43" fill="#818181"></path>
                        <path d="M85.6022644,28.9645017 C85.4311119,28.9645017 85.2956542,28.9828068 85.194061,29.0185017 C85.0915525,29.0541966 85.0119254,29.1063661 84.9560949,29.1740949 C84.9002644,29.242739 84.862739,29.3278576 84.8435186,29.4303661 C84.8242983,29.5319593 84.8142305,29.6509424 84.8114847,29.7845695 C84.8947729,29.7781627 84.9862983,29.7699254 85.086061,29.7598576 C85.1858237,29.7497898 85.2837559,29.7388068 85.3816881,29.7278237 C85.4787051,29.7159254 85.5729763,29.7049424 85.6617559,29.6939593 C85.7523661,29.6829763 85.8301627,29.6701627 85.8978915,29.6573492 C86.0013153,29.6372136 86.0708746,29.6024339 86.1065695,29.5548407 C86.1422644,29.5063322 86.1596542,29.4532475 86.1596542,29.3946712 C86.1596542,29.3187051 86.1450102,29.2528068 86.1148068,29.1978915 C86.0846034,29.1429763 86.0434169,29.0981288 85.9939932,29.0633492 C85.9436542,29.0285695 85.885078,29.0038576 85.8164339,28.9882983 C85.7496203,28.972739 85.6782305,28.9645017 85.6022644,28.9645017 M86.3683322,30.222061 C86.2612475,30.2467729 86.1422644,30.2696542 86.0141288,30.2907051 C85.885078,30.3117559 85.7523661,30.3318915 85.6159932,30.3492814 C85.4787051,30.3675864 85.3414169,30.384061 85.2032136,30.3987051 C85.0650102,30.4133492 84.9350441,30.4261627 84.8114847,30.4371458 C84.8169763,30.5131119 84.8279593,30.5817559 84.8490102,30.6421627 C84.8691458,30.7025695 84.9011797,30.754739 84.9460271,30.7968407 C84.9908746,30.8398576 85.0521966,30.8718915 85.1309085,30.8938576 C85.2096203,30.916739 85.3102983,30.9286373 85.4329424,30.9286373 C85.5656542,30.9286373 85.6873831,30.9213153 85.7990441,30.9085017 C85.9097898,30.8938576 86.0104678,30.8792136 86.101078,30.862739 C86.1926034,30.8453492 86.2722305,30.8297898 86.3436203,30.8151458 C86.4140949,30.8005017 86.4763322,30.7940949 86.5303322,30.7940949 C86.5852475,30.7940949 86.6310102,30.8023322 86.6657898,30.8206373 C86.7005695,30.8380271 86.7271119,30.8609085 86.7463322,30.8892814 C86.7655525,30.9176542 86.7783661,30.9487729 86.7838576,30.9835525 C86.7893492,31.0183322 86.7920949,31.0531119 86.7920949,31.089722 C86.7920949,31.1904 86.7609763,31.2782644 86.6978237,31.3533153 C86.6355864,31.4283661 86.5458915,31.4906034 86.4305695,31.5400271 C86.3152475,31.5894508 86.1752136,31.626061 86.0086373,31.6507729 C85.8429763,31.6754847 85.6580949,31.6882983 85.4539932,31.6882983 C85.2141966,31.6882983 85.0100949,31.6709085 84.8398576,31.6370441 C84.6696203,31.6040949 84.5277559,31.5546712 84.4115186,31.4878576 C84.2952814,31.4219593 84.2046712,31.3414169 84.1378576,31.2471458 C84.0719593,31.1537898 84.0207051,31.0448746 83.9859254,30.9231458 C83.9511458,30.8005017 83.9291797,30.6659593 83.9191119,30.5176881 C83.9090441,30.3694169 83.9044678,30.211078 83.9044678,30.0408407 C83.9044678,29.7690102 83.9227729,29.5228068 83.9593831,29.3004 C83.9969085,29.0789085 84.0710441,28.8894508 84.1836203,28.7347729 C84.2961966,28.5782644 84.4563661,28.4574508 84.6632136,28.3732475 C84.870061,28.2872136 85.1418915,28.2451119 85.4805356,28.2451119 C85.6983661,28.2451119 85.8978915,28.2634169 86.0791119,28.3000271 C86.2612475,28.3366373 86.4195864,28.3970441 86.5532136,28.4785017 C86.6877559,28.5608746 86.7957559,28.6661288 86.8781288,28.7960949 C86.9595864,28.926061 87.0117559,29.0834847 87.033722,29.2674508 C87.0474508,29.3974169 87.0465356,29.5136542 87.0318915,29.6161627 C87.0181627,29.7195864 86.9861288,29.8111119 86.9348746,29.890739 C86.8845356,29.9703661 86.8131458,30.0371797 86.7216203,30.0920949 C86.6300949,30.1470102 86.5120271,30.1909424 86.3683322,30.222061" id="Fill-45" fill="#818181"></path>
                        <path d="M90.2250305,31.6879322 C89.9852339,31.6879322 89.7811322,31.6705424 89.6118102,31.6375932 C89.4424881,31.6037288 89.2997085,31.5543051 89.1843864,31.4874915 C89.0690644,31.4215932 88.9793695,31.3419661 88.9116407,31.2476949 C88.8457424,31.1534237 88.7954034,31.0454237 88.7606237,30.9227797 C88.7258441,30.8010508 88.703878,30.6655932 88.6938102,30.5182373 C88.6828271,30.3699661 88.6791661,30.2107119 88.6791661,30.0404746 L88.6791661,29.912339 C88.6791661,29.7421017 88.6828271,29.5828475 88.6938102,29.4354915 C88.703878,29.2872203 88.7258441,29.1517627 88.7606237,29.0300339 C88.7954034,28.9073898 88.8457424,28.7993898 88.9116407,28.7051186 C88.9793695,28.6117627 89.0690644,28.5312203 89.1843864,28.465322 C89.2997085,28.3985085 89.4424881,28.3490847 89.6118102,28.3152203 C89.7811322,28.2813559 89.9852339,28.2648814 90.2250305,28.2648814 C90.4291322,28.2648814 90.6140136,28.2776949 90.7796746,28.3014915 C90.9462508,28.3271186 91.0862847,28.3637288 91.2016068,28.4131525 C91.3169288,28.4625763 91.4066237,28.5238983 91.468861,28.5998644 C91.5329288,28.6749153 91.5640475,28.7627797 91.5640475,28.8634576 C91.5640475,28.9000678 91.5613017,28.9348475 91.5548949,28.9696271 C91.5494034,29.0044068 91.5375051,29.0355254 91.5182847,29.0638983 C91.4999797,29.0922712 91.4716068,29.1142373 91.4377424,29.1325424 C91.4029627,29.1508475 91.3572,29.1590847 91.3013695,29.1590847 C91.2473695,29.1590847 91.1860475,29.152678 91.1155729,29.1389492 C91.0441831,29.1261356 90.9636407,29.1105763 90.8730305,29.0941017 C90.7815051,29.0767119 90.6808271,29.0611525 90.5700814,29.0465085 C90.4593356,29.0318644 90.3376068,29.0245424 90.2058102,29.0245424 C90.0822508,29.0245424 89.9797424,29.0318644 89.9010305,29.0465085 C89.8214034,29.0611525 89.7573356,29.0941017 89.7106576,29.1444407 C89.6639797,29.1947797 89.6310305,29.2689153 89.6136407,29.3677627 C89.5962508,29.4666102 89.5870983,29.5984068 89.5870983,29.7640678 L89.5870983,30.1750169 C89.5870983,30.3004068 89.5898441,30.4102373 89.5962508,30.502678 C89.6026576,30.5960339 89.6264542,30.6747458 89.6658102,30.7378983 C89.7051661,30.8019661 89.7664881,30.8495593 89.8506915,30.8815932 C89.9348949,30.9127119 90.0529627,30.9282712 90.2058102,30.9282712 C90.3595729,30.9282712 90.4996068,30.9200339 90.6240814,30.9026441 C90.7476407,30.8861695 90.8593017,30.8678644 90.9581492,30.8477288 C91.0304542,30.834 91.0936068,30.8211864 91.1503525,30.8102034 C91.2052678,30.7992203 91.256522,30.7937288 91.3013695,30.7937288 C91.3572,30.7937288 91.4029627,30.8028814 91.4377424,30.8202712 C91.4716068,30.8385763 91.4999797,30.8614576 91.5182847,30.8889153 C91.5375051,30.9172881 91.5494034,30.9484068 91.5548949,30.9831864 C91.5613017,31.0188814 91.5640475,31.053661 91.5640475,31.0893559 C91.5640475,31.1909492 91.5329288,31.2778983 91.468861,31.3529492 C91.4066237,31.4289153 91.3169288,31.4911525 91.2016068,31.539661 C91.0862847,31.5890847 90.9462508,31.6266102 90.7796746,31.6504068 C90.6140136,31.6751186 90.4291322,31.6879322 90.2250305,31.6879322" id="Fill-47" fill="#818181"></path>
                        <path d="M94.1720644,29.2737661 C94.1720644,29.3277661 94.2004373,29.3707831 94.2562678,29.4046475 C94.3120983,29.4385119 94.3862339,29.4668847 94.4805051,29.4906814 C94.5729458,29.514478 94.6782,29.5364441 94.7962678,29.5565797 C94.9143356,29.5767153 95.0342339,29.6014271 95.1577932,29.6316305 C95.2813525,29.6618339 95.4012508,29.7002746 95.5193186,29.7460373 C95.6373864,29.7918 95.7426407,29.8522068 95.8350814,29.9272576 C95.9284373,30.0023085 96.0025729,30.0947492 96.0593186,30.2054949 C96.1142339,30.3153254 96.1426068,30.4480373 96.1426068,30.605461 C96.1426068,30.6722746 96.1371153,30.7464102 96.1261322,30.8269525 C96.1142339,30.9084102 96.0922678,30.9880373 96.0574881,31.0676644 C96.0217932,31.1472915 95.9742,31.2241729 95.9101322,31.2992237 C95.8478949,31.3742746 95.7646068,31.4410881 95.6620983,31.4978339 C95.5595898,31.5554949 95.4332847,31.6012576 95.2840983,31.6360373 C95.1349119,31.6708169 94.9564373,31.6882068 94.7514203,31.6882068 C94.5756915,31.6882068 94.3990475,31.6799695 94.2214881,31.6644102 C94.0430136,31.6488508 93.8828441,31.6177322 93.7382339,31.5719695 C93.594539,31.5262068 93.4783017,31.4612237 93.3876915,31.3770203 C93.2961661,31.2928169 93.2513186,31.1811559 93.2513186,31.0429525 C93.2513186,30.9752237 93.2714542,30.9139017 93.3117254,30.8571559 C93.3519966,30.8013254 93.4151492,30.7729525 93.5002678,30.7729525 C93.5359627,30.7729525 93.5972847,30.7821051 93.6833186,30.7985797 C93.7702678,30.8150542 93.8691153,30.8342746 93.9826068,30.8544102 C94.0951831,30.8745458 94.2159966,30.8928508 94.3432169,30.9093254 C94.4686068,30.9267153 94.5894203,30.9340373 94.7038271,30.9340373 C94.7733864,30.9340373 94.8392847,30.9303763 94.9042678,30.9212237 C94.9674203,30.9129864 95.0241661,30.8974271 95.0717593,30.875461 C95.1202678,30.8553254 95.1577932,30.8269525 95.1852508,30.7940034 C95.214539,30.760139 95.2282678,30.717122 95.2282678,30.6658678 C95.2282678,30.598139 95.1998949,30.5450542 95.1431492,30.5038678 C95.0854881,30.4635966 95.0113525,30.4297322 94.9189119,30.4013593 C94.8273864,30.3739017 94.7221322,30.3482746 94.6031492,30.324478 C94.4841661,30.3015966 94.3624373,30.274139 94.2397932,30.2439356 C94.1162339,30.2137322 93.9954203,30.1762068 93.8764373,30.1313593 C93.7583695,30.0865119 93.6531153,30.0270203 93.5606746,29.9547153 C93.4682339,29.8814949 93.3931831,29.7918 93.3373525,29.6856305 C93.2796915,29.579461 93.2513186,29.4485797 93.2513186,29.2939017 C93.2513186,29.1236644 93.2842678,28.9726475 93.3501661,28.8417661 C93.4169797,28.7108847 93.5094203,28.6010542 93.6311492,28.5122746 C93.7519627,28.4234949 93.8965729,28.3575966 94.0631492,28.3118339 C94.2297254,28.2669864 94.4146068,28.2450203 94.6159627,28.2450203 C94.6516576,28.2450203 94.7093186,28.2450203 94.7880305,28.2468508 C94.8667424,28.2477661 94.9546068,28.2541729 95.0534542,28.2651559 C95.1513864,28.276139 95.2538949,28.2944441 95.3591492,28.3191559 C95.4644034,28.3429525 95.5623356,28.3786475 95.6520305,28.4244102 C95.7417254,28.4710881 95.8176915,28.5296644 95.8790136,28.6010542 C95.9412508,28.6733593 95.9769458,28.7603085 95.9879288,28.8637322 C95.9897593,28.9012576 95.9879288,28.9387831 95.981522,28.9763085 C95.9751153,29.0129186 95.9613864,29.0458678 95.9412508,29.0751559 C95.9211153,29.1044441 95.8927424,29.1282407 95.8570475,29.1456305 C95.8213525,29.1639356 95.7774203,29.1730881 95.7261661,29.1730881 C95.6657593,29.1730881 95.5907085,29.1639356 95.5000983,29.1456305 C95.4113186,29.1282407 95.3143017,29.1090203 95.2117932,29.0888847 C95.1074542,29.0687492 95.0022,29.0495288 94.8932847,29.0312237 C94.7852847,29.0138339 94.681861,29.0046814 94.5820983,29.0046814 C94.4576237,29.0046814 94.357861,29.0248169 94.2837254,29.0641729 C94.2095898,29.1026136 94.1720644,29.1730881 94.1720644,29.2737661" id="Fill-49" fill="#818181"></path>
                        <path d="M100.066668,28.4868305 C100.066668,28.4328305 100.079481,28.3907288 100.105108,28.3586949 C100.130736,28.3275763 100.1646,28.3037797 100.207617,28.2873051 C100.249719,28.2699153 100.299142,28.2589322 100.352227,28.2534407 C100.406227,28.2479492 100.461142,28.2452034 100.516973,28.2452034 C100.578295,28.2452034 100.635041,28.2479492 100.690871,28.2534407 C100.744871,28.2589322 100.794295,28.2699153 100.836397,28.2873051 C100.879414,28.3037797 100.913278,28.3284915 100.937075,28.3605254 C100.962702,28.3934746 100.9746,28.4355763 100.9746,28.4868305 L100.9746,31.1502203 C100.9746,31.2490678 100.934329,31.3323559 100.854702,31.401 C100.775075,31.4687288 100.656092,31.5245593 100.495007,31.566661 C100.334837,31.609678 100.133481,31.6398814 99.8936847,31.6591017 C99.6529729,31.678322 99.3692441,31.6883898 99.0443288,31.6883898 C98.7908034,31.6883898 98.5848712,31.6435424 98.4256169,31.555678 C98.2663627,31.4668983 98.1409729,31.3424237 98.0503627,31.1822542 C97.9597525,31.0220847 97.8975153,30.8317119 97.8645661,30.6102203 C97.8307017,30.3896441 97.8133119,30.1452712 97.8133119,29.8789322 L97.8133119,28.4868305 C97.8133119,28.4328305 97.8270407,28.3907288 97.8517525,28.3586949 C97.8782949,28.3275763 97.9121593,28.3037797 97.954261,28.2873051 C97.997278,28.2699153 98.0457864,28.2589322 98.0997864,28.2534407 C98.1537864,28.2479492 98.2087017,28.2452034 98.2636169,28.2452034 C98.324939,28.2452034 98.3826,28.2479492 98.4375153,28.2534407 C98.4924305,28.2589322 98.540939,28.2699153 98.5839559,28.2873051 C98.6260576,28.3037797 98.659922,28.3284915 98.6846339,28.3605254 C98.7093458,28.3934746 98.7212441,28.4355763 98.7212441,28.4868305 L98.7212441,30.0336102 C98.7212441,30.1818814 98.7276508,30.3109322 98.7404644,30.421678 C98.7523627,30.533339 98.7779898,30.6257797 98.8173458,30.699 C98.8567017,30.7731356 98.9125322,30.8289661 98.9866678,30.8664915 C99.0608034,30.9031017 99.1614814,30.9214068 99.2859559,30.9214068 C99.4973797,30.9214068 99.6566339,30.9177458 99.7655492,30.9095085 C99.8744644,30.9021864 99.9504305,30.8893729 99.9943627,30.8710678 C100.038295,30.8527627 100.061176,30.8298814 100.063007,30.8005932 C100.064837,30.7713051 100.066668,30.7356102 100.066668,30.6925932 L100.066668,28.4868305 Z" id="Fill-51" fill="#818181"></path>
                        <path d="M103.80182,30.706139 C103.806397,30.7482407 103.832024,30.7821051 103.878702,30.8068169 C103.926295,30.8315288 103.985786,30.8507492 104.058092,30.864478 C104.131312,30.8772915 104.212769,30.8882746 104.304295,30.8965119 C104.394905,30.9038339 104.487346,30.9129864 104.581617,30.9212237 C104.682295,30.9303763 104.767414,30.929461 104.836973,30.9175627 C104.906532,30.9065797 104.964193,30.8772915 105.00721,30.8306136 C105.050227,30.7830203 105.082261,30.7152915 105.103312,30.6274271 C105.122532,30.5386475 105.135346,30.4214949 105.139922,30.2759695 L105.147244,29.8988847 C105.149075,29.7515288 105.144498,29.6215627 105.133515,29.5108169 C105.121617,29.4000712 105.09599,29.3076305 105.055719,29.2334949 C105.015447,29.1593593 104.957786,29.1044441 104.880905,29.0669186 C104.804939,29.0303085 104.704261,29.0110881 104.581617,29.0110881 C104.420532,29.0110881 104.288736,29.0211559 104.187142,29.0403763 C104.084634,29.0595966 104.005007,29.082478 103.948261,29.1108508 C103.8906,29.1392237 103.852159,29.1685119 103.832024,29.1996305 C103.811888,29.2316644 103.80182,29.2582068 103.80182,29.2801729 L103.80182,30.706139 Z M104.824159,31.6882068 C104.759176,31.6882068 104.685956,31.6872915 104.603583,31.6863763 C104.52121,31.685461 104.435176,31.6808847 104.346397,31.6726475 C104.256702,31.6653254 104.165176,31.6515966 104.072736,31.6323763 C103.97938,31.6131559 103.889685,31.5847831 103.80182,31.5463424 L103.80182,32.8780373 C103.80182,32.9228847 103.794498,32.9594949 103.781685,32.9878678 C103.767956,33.0153254 103.749651,33.0372915 103.725854,33.0528508 C103.702973,33.0693254 103.673685,33.0793932 103.63982,33.0848847 C103.605956,33.0903763 103.568431,33.093122 103.525414,33.093122 C103.467753,33.093122 103.401854,33.089461 103.328634,33.082139 C103.256329,33.0739017 103.187685,33.0592576 103.124532,33.0382068 C103.059549,33.0162407 103.005549,32.9869525 102.960702,32.9475966 C102.915854,32.9082407 102.893888,32.8560712 102.893888,32.7910881 L102.893888,28.9113254 C102.893888,28.8252915 102.922261,28.7502407 102.981753,28.6843424 C103.039414,28.6175288 103.118125,28.5598678 103.216058,28.5104441 C103.314905,28.4610203 103.430227,28.4198339 103.561108,28.3859695 C103.69199,28.3521051 103.828363,28.3246475 103.972058,28.3035966 C104.113922,28.2825458 104.258532,28.2669864 104.404973,28.2587492 C104.551414,28.2495966 104.691447,28.2450203 104.824159,28.2450203 C105.074939,28.2450203 105.279956,28.2889525 105.441041,28.3777322 C105.60121,28.4665119 105.7266,28.5900712 105.81721,28.7511559 C105.908736,28.9113254 105.970058,29.1026136 106.003922,29.3241051 C106.037786,29.5455966 106.054261,29.7899695 106.054261,30.0535627 L106.054261,30.0874271 C106.054261,30.3116644 106.036871,30.5203424 106.002092,30.7143763 C105.967312,30.9084102 105.904159,31.0777322 105.811719,31.2223424 C105.720193,31.3669525 105.594803,31.4804441 105.435549,31.5637322 C105.276295,31.6461051 105.073108,31.6882068 104.824159,31.6882068 L104.824159,31.6882068 Z" id="Fill-53" fill="#818181"></path>
                        <path d="M109.78319,26.9807797 C109.806986,26.9267797 109.835359,26.8855932 109.863732,26.8563051 C109.892105,26.8270169 109.925054,26.8059661 109.958919,26.7922373 C109.993698,26.7785085 110.033054,26.7711864 110.076986,26.7693559 C110.120919,26.7666102 110.171258,26.7656949 110.226173,26.7656949 C110.287495,26.7656949 110.348817,26.7711864 110.411054,26.780339 C110.471461,26.7904068 110.525461,26.8077966 110.567563,26.830678 C110.611495,26.8544746 110.642614,26.884678 110.662749,26.9222034 C110.681054,26.9588136 110.679224,27.0027458 110.657258,27.0549153 L108.404817,31.6339322 C108.375529,31.694339 108.34441,31.7410169 108.312376,31.7721356 C108.278512,31.8041695 108.242817,31.8252203 108.201631,31.8398644 C108.162275,31.852678 108.119258,31.86 108.073495,31.8618305 C108.027732,31.8618305 107.975563,31.8627458 107.920647,31.8627458 C107.859325,31.8627458 107.800749,31.856339 107.743088,31.8444407 C107.686342,31.8316271 107.637834,31.813322 107.597563,31.7886102 C107.556376,31.7638983 107.528919,31.7327797 107.514275,31.6961695 C107.4978,31.6595593 107.501461,31.6165424 107.523427,31.5671186 L109.78319,26.9807797 Z" id="Fill-55" fill="#232957"></path>
                        <path d="M112.358258,30.0335186 C112.389376,30.0133831 112.408597,29.9959932 112.413173,29.9813492 C112.416834,29.9667051 112.418664,29.9511458 112.418664,29.9328407 C112.418664,29.9127051 112.416834,29.8934847 112.413173,29.8760949 C112.408597,29.8577898 112.389376,29.8385695 112.358258,29.8184339 L111.128156,29.0111797 C111.049444,28.9535186 110.989037,28.9031797 110.94602,28.8619932 C110.903919,28.8198915 110.8728,28.7823661 110.85358,28.7494169 C110.835275,28.7155525 110.824292,28.6844339 110.821546,28.6551458 C110.819715,28.6258576 110.8188,28.594739 110.8188,28.5608746 C110.8188,28.4711797 110.83619,28.3970441 110.8728,28.3384678 C110.903919,28.2899593 110.948766,28.2542644 111.006427,28.2313831 C111.033885,28.2204 111.062258,28.213078 111.090631,28.2094169 C111.119919,28.2057559 111.148292,28.2039254 111.174834,28.2039254 C111.293817,28.2039254 111.402732,28.2268068 111.500664,28.2716542 C111.600427,28.3165017 111.699275,28.3732475 111.800868,28.440061 L112.876292,29.1731797 C112.952258,29.2244339 113.017241,29.2756881 113.06941,29.3278576 C113.122495,29.3791119 113.165512,29.4331119 113.199376,29.4889424 C113.233241,29.5447729 113.256122,29.6042644 113.271681,29.6655864 C113.286325,29.7269085 113.292732,29.793722 113.292732,29.8651119 L113.292732,29.9868407 C113.292732,30.0628068 113.286325,30.1305356 113.271681,30.1918576 C113.256122,30.2522644 113.233241,30.3090102 113.201207,30.3630102 C113.169173,30.4170102 113.125241,30.4691797 113.071241,30.5195186 C113.018156,30.5698576 112.952258,30.6229424 112.876292,30.6796881 L111.800868,31.4118915 C111.699275,31.4796203 111.600427,31.5354508 111.500664,31.5802983 C111.402732,31.6251458 111.293817,31.6480271 111.174834,31.6480271 C111.148292,31.6480271 111.119919,31.6461966 111.090631,31.6425356 C111.062258,31.6388746 111.033885,31.6324678 111.006427,31.6205695 C110.948766,31.5976881 110.903919,31.5619932 110.8728,31.5134847 C110.83619,31.4549085 110.8188,31.3807729 110.8188,31.291078 C110.8188,31.2572136 110.819715,31.2260949 110.821546,31.1968068 C110.824292,31.1675186 110.835275,31.1364 110.85358,31.1025356 C110.8728,31.0686712 110.903919,31.032061 110.94602,30.9899593 C110.989037,30.9487729 111.049444,30.8984339 111.128156,30.8407729 L112.358258,30.0335186 Z" id="Fill-57" fill="#232957"></path>
                    </g>
                    <g id="Group-62" transform="translate(31.118644, 23.335322)" fill="url(#linearGradient-1)">
                        <path d="M0.506135593,5.76335593 C0.506135593,8.72969492 2.91050847,11.1340678 5.87684746,11.1340678 L5.87684746,11.1340678 C8.84227119,11.1340678 11.2475593,8.72969492 11.2475593,5.76335593 L11.2475593,5.76335593 C11.2475593,2.79701695 8.84227119,0.392644068 5.87684746,0.392644068 L5.87684746,0.392644068 C2.91050847,0.392644068 0.506135593,2.79701695 0.506135593,5.76335593" id="Fill-60"></path>
                    </g>
                    <g id="Group-65" transform="translate(32.033898, 2.284475)">
                        <mask id="mask-3" fill="white">
                            <use xlink:href="#path-2"></use>
                        </mask>
                        <g id="Clip-64"></g>
                        <path d="M3.15854237,0.195864407 C5.51989831,1.40308475 5.97477966,4.9240678 3.85138983,6.6520678 L3.85138983,6.6520678 C3.11369492,7.25155932 2.16274576,7.55816949 1.21820339,7.51240678 L1.21820339,7.51240678 C1.07633898,7.506 0.937220339,7.4840339 0.799932203,7.45108475 L0.799932203,7.45108475 L0.796271186,7.46755932 C0.796271186,7.46755932 0.797186441,7.46755932 0.797186441,7.46847458 L0.797186441,7.46847458 L0.798101695,7.46847458 C0.799016949,7.46847458 0.800847458,7.46847458 0.801762712,7.46938983 L0.801762712,7.46938983 C5.81186441,9.33833898 9.69162712,13.2583729 11.6090847,18.0671186 L11.6090847,18.0671186 L11.6502712,18.1714576 C11.6658305,18.2172203 11.6832203,18.2602373 11.7024407,18.3050847 L11.7024407,18.3050847 C12.2223051,19.5809492 13.4203729,20.5428814 14.9232203,20.6737627 L14.9232203,20.6737627 C16.8507458,20.8421695 18.6254237,19.5040678 19.000678,17.607661 L19.000678,17.607661 C19.1260678,16.9733898 19.0894576,16.3473559 18.9183051,15.771661 L18.9183051,15.771661 L18.9100678,15.7442034 C18.8661356,15.5822034 18.8130508,15.4238644 18.7517288,15.2682712 L18.7517288,15.2682712 C17.9636949,13.2867458 16.9285424,11.3894237 15.6545085,9.612 L15.6545085,9.612 C12.4520339,5.14738983 8.04142373,1.8680339 2.95535593,0.104338983 L2.95535593,0.104338983 C3.02491525,0.13179661 3.09172881,0.162915254 3.15854237,0.195864407" id="Fill-63" mask="url(#mask-3)"></path>
                    </g>
                    <g id="Group-68" transform="translate(0.000000, 0.453966)">
                        <mask id="mask-5" fill="white">
                            <use xlink:href="#path-4"></use>
                        </mask>
                        <g id="Clip-67"></g>
                        <path d="M26.2449153,0.461288136 C20.7964068,0.463118644 15.498,2.15816949 10.9812203,5.39633898 L10.9812203,5.39633898 C5.27186441,9.49118644 1.49827119,15.5648136 0.356033898,22.4978644 L0.356033898,22.4978644 L0.383491525,22.5024407 C0.915254237,20.6664407 2.74759322,19.4756949 4.68152542,19.7932881 L4.68152542,19.7932881 C6.61454237,20.1127119 7.9700339,21.8278983 7.88308475,23.7380339 L7.88308475,23.7380339 L7.91054237,23.7416949 C9.58179661,13.5951864 19.1965424,6.70057627 29.3430508,8.37183051 L29.3430508,8.37183051 C30.448678,8.5539661 31.5149492,8.82945763 32.5363729,9.19189831 L32.5363729,9.19189831 C32.6333898,9.22759322 32.7322373,9.25779661 32.8338305,9.28159322 L32.8338305,9.28159322 C32.9711186,9.31454237 33.1102373,9.33650847 33.2521017,9.34291525 L33.2521017,9.34291525 C34.1966441,9.38867797 35.1475932,9.0820678 35.8852881,8.48257627 L35.8852881,8.48257627 C38.008678,6.75457627 37.5537966,3.23359322 35.1924407,2.02637288 L35.1924407,2.02637288 C35.1256271,1.99342373 35.0588136,1.96230508 34.9892542,1.93484746 L34.9892542,1.93484746 C34.8464746,1.87352542 34.6972881,1.82318644 34.5471864,1.77925424 L34.5471864,1.77925424 L34.4492542,1.75271186 C33.1990169,1.34816949 31.9075932,1.03515254 30.5868814,0.817322034 L30.5868814,0.817322034 C29.1444407,0.580271186 27.6992542,0.46220339 26.2659661,0.461288136 L26.2659661,0.461288136 L26.2449153,0.461288136 Z" id="Fill-66" fill="url(#linearGradient-6)" mask="url(#mask-5)"></path>
                    </g>
                    <g id="Group-71" transform="translate(0.000000, 19.674305)">
                        <mask id="mask-8" fill="white">
                            <use xlink:href="#path-7"></use>
                        </mask>
                        <g id="Clip-70"></g>
                        <path d="M0.383491525,3.28210169 C0.342305085,3.42762712 0.306610169,3.57589831 0.281898305,3.72874576 L0.281898305,3.72874576 L0.23979661,4.05823729 C-0.660813559,10.7304407 0.993966102,17.3870847 4.9359661,22.8831864 L4.9359661,22.8831864 C9.03081356,28.5934576 15.1035254,32.3661356 22.0365763,33.5083729 L22.0365763,33.5083729 C22.5234915,33.5889153 23.0104068,33.6548136 23.497322,33.7078983 L23.497322,33.7078983 L23.5055593,33.6337627 C22.2324407,33.2301356 21.225661,32.1675254 20.9172203,30.8495593 L20.9172203,30.8495593 C20.566678,29.3540339 21.1698305,27.752339 22.417322,26.8581356 L22.417322,26.8581356 C22.9701356,26.4609153 23.6254576,26.2183729 24.3009153,26.1552203 L24.3009153,26.1552203 L24.307322,26.0938983 C23.9659322,26.0572881 23.6245424,26.0106102 23.281322,25.9538644 L23.281322,25.9538644 C13.3407458,24.3164746 6.52027119,15.0550169 7.81901695,5.13732203 L7.81901695,5.13732203 C7.82176271,5.12450847 7.82359322,5.10986441 7.82542373,5.09613559 L7.82542373,5.09613559 L7.83640678,4.97257627 C7.83915254,4.95152542 7.84372881,4.93047458 7.84647458,4.90759322 L7.84647458,4.90759322 C7.86569492,4.77671186 7.87850847,4.64674576 7.88308475,4.51769492 L7.88308475,4.51769492 C7.9700339,2.60755932 6.61454237,0.892372881 4.68152542,0.572949153 L4.68152542,0.572949153 C4.47101695,0.539084746 4.26142373,0.521694915 4.05549153,0.521694915 L4.05549153,0.521694915 C2.36410169,0.521694915 0.85759322,1.64562712 0.383491525,3.28210169" id="Fill-69" fill="url(#linearGradient-9)" mask="url(#mask-8)"></path>
                    </g>
                    <g id="Group-74" transform="translate(20.135593, 30.657356)">
                        <mask id="mask-11" fill="white">
                            <use xlink:href="#path-10"></use>
                        </mask>
                        <g id="Clip-73"></g>
                        <path d="M23.7993559,2.67620339 C21.1524407,10.3286441 13.7608475,15.4613898 5.61783051,15.2115254 L5.61783051,15.2115254 C5.52355932,15.2087797 5.42928814,15.2051186 5.33501695,15.2005424 L5.33501695,15.2005424 C5.31122034,15.1996271 5.28742373,15.1987119 5.26271186,15.1977966 L5.26271186,15.1977966 C5.21786441,15.1950508 5.1739322,15.1923051 5.13,15.1904746 L5.13,15.1904746 C4.97623729,15.1822373 4.82338983,15.1712542 4.67054237,15.1584407 L4.67054237,15.1584407 L4.66322034,15.1584407 C4.49847458,15.1511186 4.33098305,15.1566102 4.16532203,15.1721695 L4.16532203,15.1721695 C3.48986441,15.235322 2.83454237,15.4778644 2.28172881,15.8750847 L2.28172881,15.8750847 C1.03423729,16.7692881 0.431084746,18.3709831 0.781627119,19.8665085 L0.781627119,19.8665085 C1.0900678,21.1844746 2.09684746,22.2470847 3.3699661,22.6507119 L3.3699661,22.6507119 C3.54020339,22.7047119 3.71501695,22.7477288 3.89440678,22.7779322 L3.89440678,22.7779322 L3.90722034,22.7788475 C3.94383051,22.7825085 3.97952542,22.7852542 4.01613559,22.788 L4.01613559,22.788 C4.10216949,22.795322 4.18820339,22.8026441 4.27515254,22.8090508 L4.27515254,22.8090508 C4.92040678,22.8566441 5.56566102,22.8804407 6.20816949,22.8813559 L6.20816949,22.8813559 L6.25210169,22.8813559 C11.6978644,22.8767797 16.9935254,21.1826441 21.5066441,17.9463051 L21.5066441,17.9463051 C25.9822373,14.7365085 29.2689153,10.3094237 31.0307797,5.20688136 L31.0307797,5.20688136 C31.8050847,2.9599322 30.3791186,0.555559322 28.033322,0.169322034 L28.033322,0.169322034 C27.8237288,0.135457627 27.6141356,0.118067797 27.4072881,0.118067797 L27.4072881,0.118067797 C25.8055932,0.118067797 24.3366102,1.12118644 23.7993559,2.67620339" id="Fill-72" fill="url(#linearGradient-12)" mask="url(#mask-11)"></path>
                    </g>
                </g>
            </g>
        </g>
    </g>
</svg>